<?xml version="1.0" encoding="utf-8" standalone="no"?>
<!DOCTYPE svg PUBLIC "-//W3C//DTD SVG 1.1//EN"
  "http://www.w3.org/Graphics/SVG/1.1/DTD/svg11.dtd">
<svg xmlns:xlink="http://www.w3.org/1999/xlink" width="460.8pt" height="345.6pt" viewBox="0 0 460.8 345.6" xmlns="http://www.w3.org/2000/svg" version="1.1">
 <metadata>
  <rdf:RDF xmlns:dc="http://purl.org/dc/elements/1.1/" xmlns:cc="http://creativecommons.org/ns#" xmlns:rdf="http://www.w3.org/1999/02/22-rdf-syntax-ns#">
   <cc:Work>
    <dc:type rdf:resource="http://purl.org/dc/dcmitype/StillImage"/>
    <dc:date>2023-01-25T14:40:10.299301</dc:date>
    <dc:format>image/svg+xml</dc:format>
    <dc:creator>
     <cc:Agent>
      <dc:title>Matplotlib v3.6.2, https://matplotlib.org/</dc:title>
     </cc:Agent>
    </dc:creator>
   </cc:Work>
  </rdf:RDF>
 </metadata>
 <defs>
  <style type="text/css">*{stroke-linejoin: round; stroke-linecap: butt}</style>
 </defs>
 <g id="figure_1">
  <g id="patch_1">
   <path d="M 0 345.6 
L 460.8 345.6 
L 460.8 0 
L 0 0 
z
" style="fill: #ffffff"/>
  </g>
  <g id="axes_1">
   <g id="patch_2">
    <path d="M 57.6 307.584 
L 414.72 307.584 
L 414.72 41.472 
L 57.6 41.472 
z
" style="fill: #eaeaf2"/>
   </g>
   <g id="matplotlib.axis_1">
    <g id="xtick_1">
     <g id="line2d_1">
      <path d="M 83.38139 307.584 
L 83.38139 41.472 
" clip-path="url(#pd8f92356c5)" style="fill: none; stroke: #ffffff; stroke-linecap: round"/>
     </g>
     <g id="text_1">
      <!-- 2.5 -->
      <g style="fill: #262626" transform="translate(74.634672 325.442281) scale(0.11 -0.11)">
       <defs>
        <path id="DejaVuSans-32" d="M 1228 531 
L 3431 531 
L 3431 0 
L 469 0 
L 469 531 
Q 828 903 1448 1529 
Q 2069 2156 2228 2338 
Q 2531 2678 2651 2914 
Q 2772 3150 2772 3378 
Q 2772 3750 2511 3984 
Q 2250 4219 1831 4219 
Q 1534 4219 1204 4116 
Q 875 4013 500 3803 
L 500 4441 
Q 881 4594 1212 4672 
Q 1544 4750 1819 4750 
Q 2544 4750 2975 4387 
Q 3406 4025 3406 3419 
Q 3406 3131 3298 2873 
Q 3191 2616 2906 2266 
Q 2828 2175 2409 1742 
Q 1991 1309 1228 531 
z
" transform="scale(0.015625)"/>
        <path id="DejaVuSans-2e" d="M 684 794 
L 1344 794 
L 1344 0 
L 684 0 
L 684 794 
z
" transform="scale(0.015625)"/>
        <path id="DejaVuSans-35" d="M 691 4666 
L 3169 4666 
L 3169 4134 
L 1269 4134 
L 1269 2991 
Q 1406 3038 1543 3061 
Q 1681 3084 1819 3084 
Q 2600 3084 3056 2656 
Q 3513 2228 3513 1497 
Q 3513 744 3044 326 
Q 2575 -91 1722 -91 
Q 1428 -91 1123 -41 
Q 819 9 494 109 
L 494 744 
Q 775 591 1075 516 
Q 1375 441 1709 441 
Q 2250 441 2565 725 
Q 2881 1009 2881 1497 
Q 2881 1984 2565 2268 
Q 2250 2553 1709 2553 
Q 1456 2553 1204 2497 
Q 953 2441 691 2322 
L 691 4666 
z
" transform="scale(0.015625)"/>
       </defs>
       <use xlink:href="#DejaVuSans-32"/>
       <use xlink:href="#DejaVuSans-2e" x="63.623047"/>
       <use xlink:href="#DejaVuSans-35" x="95.410156"/>
      </g>
     </g>
    </g>
    <g id="xtick_2">
     <g id="line2d_2">
      <path d="M 131.124706 307.584 
L 131.124706 41.472 
" clip-path="url(#pd8f92356c5)" style="fill: none; stroke: #ffffff; stroke-linecap: round"/>
     </g>
     <g id="text_2">
      <!-- 5.0 -->
      <g style="fill: #262626" transform="translate(122.377987 325.442281) scale(0.11 -0.11)">
       <defs>
        <path id="DejaVuSans-30" d="M 2034 4250 
Q 1547 4250 1301 3770 
Q 1056 3291 1056 2328 
Q 1056 1369 1301 889 
Q 1547 409 2034 409 
Q 2525 409 2770 889 
Q 3016 1369 3016 2328 
Q 3016 3291 2770 3770 
Q 2525 4250 2034 4250 
z
M 2034 4750 
Q 2819 4750 3233 4129 
Q 3647 3509 3647 2328 
Q 3647 1150 3233 529 
Q 2819 -91 2034 -91 
Q 1250 -91 836 529 
Q 422 1150 422 2328 
Q 422 3509 836 4129 
Q 1250 4750 2034 4750 
z
" transform="scale(0.015625)"/>
       </defs>
       <use xlink:href="#DejaVuSans-35"/>
       <use xlink:href="#DejaVuSans-2e" x="63.623047"/>
       <use xlink:href="#DejaVuSans-30" x="95.410156"/>
      </g>
     </g>
    </g>
    <g id="xtick_3">
     <g id="line2d_3">
      <path d="M 178.868021 307.584 
L 178.868021 41.472 
" clip-path="url(#pd8f92356c5)" style="fill: none; stroke: #ffffff; stroke-linecap: round"/>
     </g>
     <g id="text_3">
      <!-- 7.5 -->
      <g style="fill: #262626" transform="translate(170.121303 325.442281) scale(0.11 -0.11)">
       <defs>
        <path id="DejaVuSans-37" d="M 525 4666 
L 3525 4666 
L 3525 4397 
L 1831 0 
L 1172 0 
L 2766 4134 
L 525 4134 
L 525 4666 
z
" transform="scale(0.015625)"/>
       </defs>
       <use xlink:href="#DejaVuSans-37"/>
       <use xlink:href="#DejaVuSans-2e" x="63.623047"/>
       <use xlink:href="#DejaVuSans-35" x="95.410156"/>
      </g>
     </g>
    </g>
    <g id="xtick_4">
     <g id="line2d_4">
      <path d="M 226.611337 307.584 
L 226.611337 41.472 
" clip-path="url(#pd8f92356c5)" style="fill: none; stroke: #ffffff; stroke-linecap: round"/>
     </g>
     <g id="text_4">
      <!-- 10.0 -->
      <g style="fill: #262626" transform="translate(214.365243 325.442281) scale(0.11 -0.11)">
       <defs>
        <path id="DejaVuSans-31" d="M 794 531 
L 1825 531 
L 1825 4091 
L 703 3866 
L 703 4441 
L 1819 4666 
L 2450 4666 
L 2450 531 
L 3481 531 
L 3481 0 
L 794 0 
L 794 531 
z
" transform="scale(0.015625)"/>
       </defs>
       <use xlink:href="#DejaVuSans-31"/>
       <use xlink:href="#DejaVuSans-30" x="63.623047"/>
       <use xlink:href="#DejaVuSans-2e" x="127.246094"/>
       <use xlink:href="#DejaVuSans-30" x="159.033203"/>
      </g>
     </g>
    </g>
    <g id="xtick_5">
     <g id="line2d_5">
      <path d="M 274.354652 307.584 
L 274.354652 41.472 
" clip-path="url(#pd8f92356c5)" style="fill: none; stroke: #ffffff; stroke-linecap: round"/>
     </g>
     <g id="text_5">
      <!-- 12.5 -->
      <g style="fill: #262626" transform="translate(262.108559 325.442281) scale(0.11 -0.11)">
       <use xlink:href="#DejaVuSans-31"/>
       <use xlink:href="#DejaVuSans-32" x="63.623047"/>
       <use xlink:href="#DejaVuSans-2e" x="127.246094"/>
       <use xlink:href="#DejaVuSans-35" x="159.033203"/>
      </g>
     </g>
    </g>
    <g id="xtick_6">
     <g id="line2d_6">
      <path d="M 322.097968 307.584 
L 322.097968 41.472 
" clip-path="url(#pd8f92356c5)" style="fill: none; stroke: #ffffff; stroke-linecap: round"/>
     </g>
     <g id="text_6">
      <!-- 15.0 -->
      <g style="fill: #262626" transform="translate(309.851874 325.442281) scale(0.11 -0.11)">
       <use xlink:href="#DejaVuSans-31"/>
       <use xlink:href="#DejaVuSans-35" x="63.623047"/>
       <use xlink:href="#DejaVuSans-2e" x="127.246094"/>
       <use xlink:href="#DejaVuSans-30" x="159.033203"/>
      </g>
     </g>
    </g>
    <g id="xtick_7">
     <g id="line2d_7">
      <path d="M 369.841283 307.584 
L 369.841283 41.472 
" clip-path="url(#pd8f92356c5)" style="fill: none; stroke: #ffffff; stroke-linecap: round"/>
     </g>
     <g id="text_7">
      <!-- 17.5 -->
      <g style="fill: #262626" transform="translate(357.59519 325.442281) scale(0.11 -0.11)">
       <use xlink:href="#DejaVuSans-31"/>
       <use xlink:href="#DejaVuSans-37" x="63.623047"/>
       <use xlink:href="#DejaVuSans-2e" x="127.246094"/>
       <use xlink:href="#DejaVuSans-35" x="159.033203"/>
      </g>
     </g>
    </g>
   </g>
   <g id="matplotlib.axis_2">
    <g id="ytick_1">
     <g id="line2d_8">
      <path d="M 57.6 304.66635 
L 414.72 304.66635 
" clip-path="url(#pd8f92356c5)" style="fill: none; stroke: #ffffff; stroke-linecap: round"/>
     </g>
     <g id="text_8">
      <!-- 0.775 -->
      <g style="fill: #262626" transform="translate(16.609063 308.84549) scale(0.11 -0.11)">
       <use xlink:href="#DejaVuSans-30"/>
       <use xlink:href="#DejaVuSans-2e" x="63.623047"/>
       <use xlink:href="#DejaVuSans-37" x="95.410156"/>
       <use xlink:href="#DejaVuSans-37" x="159.033203"/>
       <use xlink:href="#DejaVuSans-35" x="222.65625"/>
      </g>
     </g>
    </g>
    <g id="ytick_2">
     <g id="line2d_9">
      <path d="M 57.6 274.889771 
L 414.72 274.889771 
" clip-path="url(#pd8f92356c5)" style="fill: none; stroke: #ffffff; stroke-linecap: round"/>
     </g>
     <g id="text_9">
      <!-- 0.800 -->
      <g style="fill: #262626" transform="translate(16.609063 279.068911) scale(0.11 -0.11)">
       <defs>
        <path id="DejaVuSans-38" d="M 2034 2216 
Q 1584 2216 1326 1975 
Q 1069 1734 1069 1313 
Q 1069 891 1326 650 
Q 1584 409 2034 409 
Q 2484 409 2743 651 
Q 3003 894 3003 1313 
Q 3003 1734 2745 1975 
Q 2488 2216 2034 2216 
z
M 1403 2484 
Q 997 2584 770 2862 
Q 544 3141 544 3541 
Q 544 4100 942 4425 
Q 1341 4750 2034 4750 
Q 2731 4750 3128 4425 
Q 3525 4100 3525 3541 
Q 3525 3141 3298 2862 
Q 3072 2584 2669 2484 
Q 3125 2378 3379 2068 
Q 3634 1759 3634 1313 
Q 3634 634 3220 271 
Q 2806 -91 2034 -91 
Q 1263 -91 848 271 
Q 434 634 434 1313 
Q 434 1759 690 2068 
Q 947 2378 1403 2484 
z
M 1172 3481 
Q 1172 3119 1398 2916 
Q 1625 2713 2034 2713 
Q 2441 2713 2670 2916 
Q 2900 3119 2900 3481 
Q 2900 3844 2670 4047 
Q 2441 4250 2034 4250 
Q 1625 4250 1398 4047 
Q 1172 3844 1172 3481 
z
" transform="scale(0.015625)"/>
       </defs>
       <use xlink:href="#DejaVuSans-30"/>
       <use xlink:href="#DejaVuSans-2e" x="63.623047"/>
       <use xlink:href="#DejaVuSans-38" x="95.410156"/>
       <use xlink:href="#DejaVuSans-30" x="159.033203"/>
       <use xlink:href="#DejaVuSans-30" x="222.65625"/>
      </g>
     </g>
    </g>
    <g id="ytick_3">
     <g id="line2d_10">
      <path d="M 57.6 245.113192 
L 414.72 245.113192 
" clip-path="url(#pd8f92356c5)" style="fill: none; stroke: #ffffff; stroke-linecap: round"/>
     </g>
     <g id="text_10">
      <!-- 0.825 -->
      <g style="fill: #262626" transform="translate(16.609063 249.292332) scale(0.11 -0.11)">
       <use xlink:href="#DejaVuSans-30"/>
       <use xlink:href="#DejaVuSans-2e" x="63.623047"/>
       <use xlink:href="#DejaVuSans-38" x="95.410156"/>
       <use xlink:href="#DejaVuSans-32" x="159.033203"/>
       <use xlink:href="#DejaVuSans-35" x="222.65625"/>
      </g>
     </g>
    </g>
    <g id="ytick_4">
     <g id="line2d_11">
      <path d="M 57.6 215.336613 
L 414.72 215.336613 
" clip-path="url(#pd8f92356c5)" style="fill: none; stroke: #ffffff; stroke-linecap: round"/>
     </g>
     <g id="text_11">
      <!-- 0.850 -->
      <g style="fill: #262626" transform="translate(16.609063 219.515753) scale(0.11 -0.11)">
       <use xlink:href="#DejaVuSans-30"/>
       <use xlink:href="#DejaVuSans-2e" x="63.623047"/>
       <use xlink:href="#DejaVuSans-38" x="95.410156"/>
       <use xlink:href="#DejaVuSans-35" x="159.033203"/>
       <use xlink:href="#DejaVuSans-30" x="222.65625"/>
      </g>
     </g>
    </g>
    <g id="ytick_5">
     <g id="line2d_12">
      <path d="M 57.6 185.560034 
L 414.72 185.560034 
" clip-path="url(#pd8f92356c5)" style="fill: none; stroke: #ffffff; stroke-linecap: round"/>
     </g>
     <g id="text_12">
      <!-- 0.875 -->
      <g style="fill: #262626" transform="translate(16.609063 189.739174) scale(0.11 -0.11)">
       <use xlink:href="#DejaVuSans-30"/>
       <use xlink:href="#DejaVuSans-2e" x="63.623047"/>
       <use xlink:href="#DejaVuSans-38" x="95.410156"/>
       <use xlink:href="#DejaVuSans-37" x="159.033203"/>
       <use xlink:href="#DejaVuSans-35" x="222.65625"/>
      </g>
     </g>
    </g>
    <g id="ytick_6">
     <g id="line2d_13">
      <path d="M 57.6 155.783455 
L 414.72 155.783455 
" clip-path="url(#pd8f92356c5)" style="fill: none; stroke: #ffffff; stroke-linecap: round"/>
     </g>
     <g id="text_13">
      <!-- 0.900 -->
      <g style="fill: #262626" transform="translate(16.609063 159.962595) scale(0.11 -0.11)">
       <defs>
        <path id="DejaVuSans-39" d="M 703 97 
L 703 672 
Q 941 559 1184 500 
Q 1428 441 1663 441 
Q 2288 441 2617 861 
Q 2947 1281 2994 2138 
Q 2813 1869 2534 1725 
Q 2256 1581 1919 1581 
Q 1219 1581 811 2004 
Q 403 2428 403 3163 
Q 403 3881 828 4315 
Q 1253 4750 1959 4750 
Q 2769 4750 3195 4129 
Q 3622 3509 3622 2328 
Q 3622 1225 3098 567 
Q 2575 -91 1691 -91 
Q 1453 -91 1209 -44 
Q 966 3 703 97 
z
M 1959 2075 
Q 2384 2075 2632 2365 
Q 2881 2656 2881 3163 
Q 2881 3666 2632 3958 
Q 2384 4250 1959 4250 
Q 1534 4250 1286 3958 
Q 1038 3666 1038 3163 
Q 1038 2656 1286 2365 
Q 1534 2075 1959 2075 
z
" transform="scale(0.015625)"/>
       </defs>
       <use xlink:href="#DejaVuSans-30"/>
       <use xlink:href="#DejaVuSans-2e" x="63.623047"/>
       <use xlink:href="#DejaVuSans-39" x="95.410156"/>
       <use xlink:href="#DejaVuSans-30" x="159.033203"/>
       <use xlink:href="#DejaVuSans-30" x="222.65625"/>
      </g>
     </g>
    </g>
    <g id="ytick_7">
     <g id="line2d_14">
      <path d="M 57.6 126.006876 
L 414.72 126.006876 
" clip-path="url(#pd8f92356c5)" style="fill: none; stroke: #ffffff; stroke-linecap: round"/>
     </g>
     <g id="text_14">
      <!-- 0.925 -->
      <g style="fill: #262626" transform="translate(16.609063 130.186016) scale(0.11 -0.11)">
       <use xlink:href="#DejaVuSans-30"/>
       <use xlink:href="#DejaVuSans-2e" x="63.623047"/>
       <use xlink:href="#DejaVuSans-39" x="95.410156"/>
       <use xlink:href="#DejaVuSans-32" x="159.033203"/>
       <use xlink:href="#DejaVuSans-35" x="222.65625"/>
      </g>
     </g>
    </g>
    <g id="ytick_8">
     <g id="line2d_15">
      <path d="M 57.6 96.230297 
L 414.72 96.230297 
" clip-path="url(#pd8f92356c5)" style="fill: none; stroke: #ffffff; stroke-linecap: round"/>
     </g>
     <g id="text_15">
      <!-- 0.950 -->
      <g style="fill: #262626" transform="translate(16.609063 100.409437) scale(0.11 -0.11)">
       <use xlink:href="#DejaVuSans-30"/>
       <use xlink:href="#DejaVuSans-2e" x="63.623047"/>
       <use xlink:href="#DejaVuSans-39" x="95.410156"/>
       <use xlink:href="#DejaVuSans-35" x="159.033203"/>
       <use xlink:href="#DejaVuSans-30" x="222.65625"/>
      </g>
     </g>
    </g>
    <g id="ytick_9">
     <g id="line2d_16">
      <path d="M 57.6 66.453718 
L 414.72 66.453718 
" clip-path="url(#pd8f92356c5)" style="fill: none; stroke: #ffffff; stroke-linecap: round"/>
     </g>
     <g id="text_16">
      <!-- 0.975 -->
      <g style="fill: #262626" transform="translate(16.609063 70.632858) scale(0.11 -0.11)">
       <use xlink:href="#DejaVuSans-30"/>
       <use xlink:href="#DejaVuSans-2e" x="63.623047"/>
       <use xlink:href="#DejaVuSans-39" x="95.410156"/>
       <use xlink:href="#DejaVuSans-37" x="159.033203"/>
       <use xlink:href="#DejaVuSans-35" x="222.65625"/>
      </g>
     </g>
    </g>
   </g>
   <g id="PolyCollection_1">
    <defs>
     <path id="me12ee2750a" d="M 73.832727 -121.349657 
L 73.832727 -50.112 
L 92.930053 -128.954325 
L 112.02738 -147.517079 
L 131.124706 -188.473653 
L 150.222032 -197.955463 
L 169.319358 -218.602167 
L 188.416684 -216.769646 
L 207.514011 -221.361676 
L 226.611337 -236.007848 
L 245.708663 -251.285391 
L 264.805989 -248.614438 
L 283.903316 -255.304155 
L 303.000642 -257.732703 
L 322.097968 -260.770428 
L 341.195294 -258.757893 
L 360.29262 -265.352208 
L 379.389947 -264.25535 
L 398.487273 -269.595916 
L 398.487273 -279.762593 
L 398.487273 -279.762593 
L 379.389947 -274.608824 
L 360.29262 -276.708043 
L 341.195294 -270.687873 
L 322.097968 -272.747418 
L 303.000642 -269.319069 
L 283.903316 -266.722415 
L 264.805989 -260.935367 
L 245.708663 -262.757648 
L 226.611337 -251.773583 
L 207.514011 -240.148824 
L 188.416684 -244.78241 
L 169.319358 -235.48261 
L 150.222032 -229.190558 
L 131.124706 -216.876823 
L 112.02738 -196.828113 
L 92.930053 -177.08164 
L 73.832727 -121.349657 
z
" style="stroke: #4c72b0; stroke-opacity: 0.2"/>
    </defs>
    <g clip-path="url(#pd8f92356c5)">
     <use xlink:href="#me12ee2750a" x="0" y="345.6" style="fill: #4c72b0; fill-opacity: 0.2; stroke: #4c72b0; stroke-opacity: 0.2"/>
    </g>
   </g>
   <g id="PolyCollection_2">
    <defs>
     <path id="mc4715e6819" d="M 73.832727 -155.745692 
L 73.832727 -140.354545 
L 92.930053 -153.201361 
L 112.02738 -193.152745 
L 131.124706 -220.879781 
L 150.222032 -237.42023 
L 169.319358 -249.090208 
L 188.416684 -255.240453 
L 207.514011 -260.574728 
L 226.611337 -272.949493 
L 245.708663 -274.642888 
L 264.805989 -278.943267 
L 283.903316 -280.360355 
L 303.000642 -281.828523 
L 322.097968 -282.027252 
L 341.195294 -284.113735 
L 360.29262 -284.820342 
L 379.389947 -286.868931 
L 398.487273 -288.023545 
L 398.487273 -292.032 
L 398.487273 -292.032 
L 379.389947 -289.947783 
L 360.29262 -288.071869 
L 341.195294 -288.29672 
L 322.097968 -286.224814 
L 303.000642 -285.909421 
L 283.903316 -284.598139 
L 264.805989 -283.301172 
L 245.708663 -279.702464 
L 226.611337 -278.217764 
L 207.514011 -268.400737 
L 188.416684 -265.867891 
L 169.319358 -259.09651 
L 150.222032 -248.623178 
L 131.124706 -233.039306 
L 112.02738 -207.114324 
L 92.930053 -170.64744 
L 73.832727 -155.745692 
z
" style="stroke: #c44e52; stroke-opacity: 0.2"/>
    </defs>
    <g clip-path="url(#pd8f92356c5)">
     <use xlink:href="#mc4715e6819" x="0" y="345.6" style="fill: #c44e52; fill-opacity: 0.2; stroke: #c44e52; stroke-opacity: 0.2"/>
    </g>
   </g>
   <g id="PolyCollection_3">
    <defs>
     <path id="maa2fa9e3d1" d="M 73.832727 -176.683144 
L 73.832727 -176.683144 
L 92.930053 -177.805963 
L 112.02738 -224.588665 
L 131.124706 -242.905236 
L 150.222032 -261.346665 
L 169.319358 -261.346665 
L 188.416684 -260.594938 
L 207.514011 -260.773545 
L 226.611337 -261.449442 
L 245.708663 -262.724829 
L 264.805989 -264.084664 
L 283.903316 -264.340366 
L 303.000642 -264.598782 
L 322.097968 -264.463873 
L 341.195294 -264.552264 
L 360.29262 -265.318453 
L 379.389947 -265.232994 
L 398.487273 -265.991668 
L 398.487273 -268.487559 
L 398.487273 -268.487559 
L 379.389947 -267.215453 
L 360.29262 -267.203117 
L 341.195294 -265.779096 
L 322.097968 -266.081793 
L 303.000642 -265.906127 
L 283.903316 -265.760571 
L 264.805989 -265.462994 
L 245.708663 -264.338531 
L 226.611337 -262.279322 
L 207.514011 -261.060296 
L 188.416684 -260.825076 
L 169.319358 -261.346665 
L 150.222032 -261.346665 
L 131.124706 -244.760984 
L 112.02738 -226.775266 
L 92.930053 -178.113617 
L 73.832727 -176.683144 
z
" style="stroke: #1a1a1a; stroke-opacity: 0.2"/>
    </defs>
    <g clip-path="url(#pd8f92356c5)">
     <use xlink:href="#maa2fa9e3d1" x="0" y="345.6" style="fill: #1a1a1a; fill-opacity: 0.2; stroke: #1a1a1a; stroke-opacity: 0.2"/>
    </g>
   </g>
   <g id="PolyCollection_4">
    <defs>
     <path id="me0629bc6be" d="M 73.832727 -139.863875 
L 73.832727 -85.999804 
L 92.930053 -156.711992 
L 112.02738 -154.146736 
L 131.124706 -219.321889 
L 150.222032 -225.776085 
L 169.319358 -230.831174 
L 188.416684 -247.273245 
L 207.514011 -253.629639 
L 226.611337 -255.235558 
L 245.708663 -264.101921 
L 264.805989 -266.482768 
L 283.903316 -269.387396 
L 303.000642 -270.902099 
L 322.097968 -274.853415 
L 341.195294 -276.686972 
L 360.29262 -282.56327 
L 379.389947 -282.125871 
L 398.487273 -283.700383 
L 398.487273 -289.026403 
L 398.487273 -289.026403 
L 379.389947 -287.130463 
L 360.29262 -287.422424 
L 341.195294 -283.199834 
L 322.097968 -281.411634 
L 303.000642 -278.391278 
L 283.903316 -277.424614 
L 264.805989 -275.705881 
L 245.708663 -273.810996 
L 226.611337 -264.937379 
L 207.514011 -264.570191 
L 188.416684 -259.32609 
L 169.319358 -243.366134 
L 150.222032 -239.602845 
L 131.124706 -234.018611 
L 112.02738 -201.684538 
L 92.930053 -191.181036 
L 73.832727 -139.863875 
z
" style="stroke: #55a868; stroke-opacity: 0.2"/>
    </defs>
    <g clip-path="url(#pd8f92356c5)">
     <use xlink:href="#me0629bc6be" x="0" y="345.6" style="fill: #55a868; fill-opacity: 0.2; stroke: #55a868; stroke-opacity: 0.2"/>
    </g>
   </g>
   <g id="PolyCollection_5">
    <defs>
     <path id="m484205f11f" d="M 73.832727 -152.599879 
L 73.832727 -136.301196 
L 92.930053 -172.505848 
L 112.02738 -206.019761 
L 131.124706 -220.71943 
L 150.222032 -232.106153 
L 169.319358 -240.633263 
L 188.416684 -249.999908 
L 207.514011 -253.471157 
L 226.611337 -262.96536 
L 245.708663 -266.598281 
L 264.805989 -270.801665 
L 283.903316 -276.536175 
L 303.000642 -274.72002 
L 322.097968 -280.416993 
L 341.195294 -281.200232 
L 360.29262 -285.165799 
L 379.389947 -283.632264 
L 398.487273 -283.174836 
L 398.487273 -289.584448 
L 398.487273 -289.584448 
L 379.389947 -289.709336 
L 360.29262 -290.336576 
L 341.195294 -287.959272 
L 322.097968 -287.045511 
L 303.000642 -283.976849 
L 283.903316 -282.89991 
L 264.805989 -278.580951 
L 245.708663 -274.799473 
L 226.611337 -273.326343 
L 207.514011 -263.421926 
L 188.416684 -260.834135 
L 169.319358 -252.887146 
L 150.222032 -243.9023 
L 131.124706 -233.650245 
L 112.02738 -219.276089 
L 92.930053 -188.558674 
L 73.832727 -152.599879 
z
" style="stroke: #64b5cd; stroke-opacity: 0.2"/>
    </defs>
    <g clip-path="url(#pd8f92356c5)">
     <use xlink:href="#m484205f11f" x="0" y="345.6" style="fill: #64b5cd; fill-opacity: 0.2; stroke: #64b5cd; stroke-opacity: 0.2"/>
    </g>
   </g>
   <g id="PolyCollection_6">
    <defs>
     <path id="mf5c5948219" d="M 73.832727 -150.527241 
L 73.832727 -133.09277 
L 92.930053 -160.109613 
L 112.02738 -175.046767 
L 131.124706 -191.746712 
L 150.222032 -200.586015 
L 169.319358 -209.411532 
L 188.416684 -212.392108 
L 207.514011 -217.792453 
L 226.611337 -244.610771 
L 245.708663 -247.299927 
L 264.805989 -245.228324 
L 283.903316 -245.285802 
L 303.000642 -244.526362 
L 322.097968 -246.313697 
L 341.195294 -246.238158 
L 360.29262 -245.733702 
L 379.389947 -249.136408 
L 398.487273 -245.871945 
L 398.487273 -256.4133 
L 398.487273 -256.4133 
L 379.389947 -254.806812 
L 360.29262 -254.432591 
L 341.195294 -253.630051 
L 322.097968 -254.80705 
L 303.000642 -251.813856 
L 283.903316 -252.213054 
L 264.805989 -254.840872 
L 245.708663 -254.823357 
L 226.611337 -252.64128 
L 207.514011 -226.239656 
L 188.416684 -221.973854 
L 169.319358 -219.66684 
L 150.222032 -211.713622 
L 131.124706 -205.738508 
L 112.02738 -188.731277 
L 92.930053 -173.426911 
L 73.832727 -150.527241 
z
" style="stroke: #8172b3; stroke-opacity: 0.2"/>
    </defs>
    <g clip-path="url(#pd8f92356c5)">
     <use xlink:href="#mf5c5948219" x="0" y="345.6" style="fill: #8172b3; fill-opacity: 0.2; stroke: #8172b3; stroke-opacity: 0.2"/>
    </g>
   </g>
   <g id="PolyCollection_7">
    <defs>
     <path id="mcf139dcd01" d="M 73.832727 -157.776534 
L 73.832727 -157.776534 
L 92.930053 -173.175616 
L 112.02738 -199.370793 
L 131.124706 -199.622143 
L 150.222032 -212.313895 
L 169.319358 -234.851065 
L 188.416684 -251.98067 
L 207.514011 -253.266454 
L 226.611337 -260.461639 
L 245.708663 -258.773002 
L 264.805989 -264.455774 
L 283.903316 -268.546566 
L 303.000642 -271.126953 
L 322.097968 -273.211313 
L 341.195294 -274.057247 
L 360.29262 -276.730353 
L 379.389947 -279.701718 
L 398.487273 -280.386632 
L 398.487273 -284.941336 
L 398.487273 -284.941336 
L 379.389947 -284.211351 
L 360.29262 -282.837726 
L 341.195294 -279.760531 
L 322.097968 -278.386154 
L 303.000642 -276.435061 
L 283.903316 -274.77275 
L 264.805989 -270.471777 
L 245.708663 -265.986402 
L 226.611337 -266.613842 
L 207.514011 -261.86916 
L 188.416684 -257.171824 
L 169.319358 -241.675772 
L 150.222032 -213.838247 
L 131.124706 -199.622143 
L 112.02738 -205.827178 
L 92.930053 -177.864607 
L 73.832727 -157.776534 
z
" style="stroke: #ccb974; stroke-opacity: 0.2"/>
    </defs>
    <g clip-path="url(#pd8f92356c5)">
     <use xlink:href="#mcf139dcd01" x="0" y="345.6" style="fill: #ccb974; fill-opacity: 0.2; stroke: #ccb974; stroke-opacity: 0.2"/>
    </g>
   </g>
   <g id="line2d_17">
    <path d="M 73.832727 259.869171 
L 92.930053 192.582018 
L 112.02738 173.427404 
L 131.124706 142.924762 
L 150.222032 132.026989 
L 169.319358 118.557611 
L 188.416684 114.823972 
L 207.514011 114.84475 
L 226.611337 101.709284 
L 245.708663 88.578481 
L 264.805989 90.825097 
L 283.903316 84.586715 
L 303.000642 82.074114 
L 322.097968 78.841077 
L 341.195294 80.877117 
L 360.29262 74.569874 
L 379.389947 76.167913 
L 398.487273 70.920746 
" clip-path="url(#pd8f92356c5)" style="fill: none; stroke: #4c72b0; stroke-width: 1.5; stroke-linecap: round"/>
   </g>
   <g id="line2d_18">
    <path d="M 73.832727 197.549881 
L 92.930053 183.675599 
L 112.02738 145.466466 
L 131.124706 118.640457 
L 150.222032 102.578296 
L 169.319358 91.506641 
L 188.416684 85.045828 
L 207.514011 81.112268 
L 226.611337 70.016372 
L 245.708663 68.427324 
L 264.805989 64.47778 
L 283.903316 63.120753 
L 303.000642 61.731028 
L 322.097968 61.473967 
L 341.195294 59.394773 
L 360.29262 59.153895 
L 379.389947 57.191643 
L 398.487273 55.572228 
" clip-path="url(#pd8f92356c5)" style="fill: none; stroke: #c44e52; stroke-width: 1.5; stroke-linecap: round"/>
   </g>
   <g id="line2d_19">
    <path d="M 73.832727 168.916856 
L 92.930053 167.64021 
L 112.02738 119.918035 
L 131.124706 101.76689 
L 150.222032 84.253335 
L 169.319358 84.253335 
L 188.416684 84.889993 
L 207.514011 84.68308 
L 226.611337 83.735618 
L 245.708663 82.06832 
L 264.805989 80.826171 
L 283.903316 80.549531 
L 303.000642 80.347545 
L 322.097968 80.327167 
L 341.195294 80.43432 
L 360.29262 79.339215 
L 379.389947 79.375776 
L 398.487273 78.360387 
" clip-path="url(#pd8f92356c5)" style="fill: none; stroke: #1a1a1a; stroke-width: 1.5; stroke-linecap: round"/>
   </g>
   <g id="line2d_20">
    <path d="M 73.832727 232.66816 
L 92.930053 171.653486 
L 112.02738 167.684363 
L 131.124706 118.92975 
L 150.222032 112.910535 
L 169.319358 108.501346 
L 188.416684 92.300332 
L 207.514011 86.500085 
L 226.611337 85.513532 
L 245.708663 76.643541 
L 264.805989 74.505676 
L 283.903316 72.193995 
L 303.000642 70.953311 
L 322.097968 67.467476 
L 341.195294 65.656597 
L 360.29262 60.607153 
L 379.389947 60.971833 
L 398.487273 59.236607 
" clip-path="url(#pd8f92356c5)" style="fill: none; stroke: #55a868; stroke-width: 1.5; stroke-linecap: round"/>
   </g>
   <g id="line2d_21">
    <path d="M 73.832727 201.149463 
L 92.930053 165.067739 
L 112.02738 132.952075 
L 131.124706 118.415162 
L 150.222032 107.595773 
L 169.319358 98.839795 
L 188.416684 90.182978 
L 207.514011 87.153459 
L 226.611337 77.454148 
L 245.708663 74.901123 
L 264.805989 70.908692 
L 283.903316 65.881957 
L 303.000642 66.251565 
L 322.097968 61.868748 
L 341.195294 61.020248 
L 360.29262 57.848813 
L 379.389947 58.9292 
L 398.487273 59.220358 
" clip-path="url(#pd8f92356c5)" style="fill: none; stroke: #64b5cd; stroke-width: 1.5; stroke-linecap: round"/>
   </g>
   <g id="line2d_22">
    <path d="M 73.832727 203.789995 
L 92.930053 178.831738 
L 112.02738 163.710978 
L 131.124706 146.85739 
L 150.222032 139.450181 
L 169.319358 131.060814 
L 188.416684 128.417019 
L 207.514011 123.583946 
L 226.611337 96.973974 
L 245.708663 94.538358 
L 264.805989 95.565402 
L 283.903316 96.850572 
L 303.000642 97.429891 
L 322.097968 95.039626 
L 341.195294 95.665895 
L 360.29262 95.516853 
L 379.389947 93.62839 
L 398.487273 94.457377 
" clip-path="url(#pd8f92356c5)" style="fill: none; stroke: #8172b3; stroke-width: 1.5; stroke-linecap: round"/>
   </g>
   <g id="line2d_23">
    <path d="M 73.832727 187.823466 
L 92.930053 170.079889 
L 112.02738 143.001015 
L 131.124706 145.977857 
L 150.222032 132.523929 
L 169.319358 107.336581 
L 188.416684 91.023753 
L 207.514011 88.032193 
L 226.611337 82.06226 
L 245.708663 83.220298 
L 264.805989 78.136225 
L 283.903316 73.940342 
L 303.000642 71.818993 
L 322.097968 69.801266 
L 341.195294 68.691111 
L 360.29262 65.815961 
L 379.389947 63.643465 
L 398.487273 62.936016 
" clip-path="url(#pd8f92356c5)" style="fill: none; stroke: #ccb974; stroke-width: 1.5; stroke-linecap: round"/>
   </g>
   <g id="patch_3">
    <path d="M 57.6 307.584 
L 57.6 41.472 
" style="fill: none; stroke: #ffffff; stroke-width: 1.25; stroke-linejoin: miter; stroke-linecap: square"/>
   </g>
   <g id="patch_4">
    <path d="M 414.72 307.584 
L 414.72 41.472 
" style="fill: none; stroke: #ffffff; stroke-width: 1.25; stroke-linejoin: miter; stroke-linecap: square"/>
   </g>
   <g id="patch_5">
    <path d="M 57.6 307.584 
L 414.72 307.584 
" style="fill: none; stroke: #ffffff; stroke-width: 1.25; stroke-linejoin: miter; stroke-linecap: square"/>
   </g>
   <g id="patch_6">
    <path d="M 57.6 41.472 
L 414.72 41.472 
" style="fill: none; stroke: #ffffff; stroke-width: 1.25; stroke-linejoin: miter; stroke-linecap: square"/>
   </g>
   <g id="legend_1">
    <g id="patch_7">
     <path d="M 188.394141 303.459 
L 408.945 303.459 
Q 410.595 303.459 410.595 301.809 
L 410.595 217.867828 
Q 410.595 216.217828 408.945 216.217828 
L 188.394141 216.217828 
Q 186.744141 216.217828 186.744141 217.867828 
L 186.744141 301.809 
Q 186.744141 303.459 188.394141 303.459 
z
" style="fill: #eaeaf2; opacity: 0.8; stroke: #cccccc; stroke-linejoin: miter"/>
    </g>
    <g id="line2d_24">
     <path d="M 190.044141 222.899039 
L 198.294141 222.899039 
L 206.544141 222.899039 
" style="fill: none; stroke: #4c72b0; stroke-width: 1.5; stroke-linecap: round"/>
    </g>
    <g id="text_17">
     <!-- NoClusteringRandomSampling -->
     <g style="fill: #262626" transform="translate(213.144141 225.786539) scale(0.0825 -0.0825)">
      <defs>
       <path id="DejaVuSans-4e" d="M 628 4666 
L 1478 4666 
L 3547 763 
L 3547 4666 
L 4159 4666 
L 4159 0 
L 3309 0 
L 1241 3903 
L 1241 0 
L 628 0 
L 628 4666 
z
" transform="scale(0.015625)"/>
       <path id="DejaVuSans-6f" d="M 1959 3097 
Q 1497 3097 1228 2736 
Q 959 2375 959 1747 
Q 959 1119 1226 758 
Q 1494 397 1959 397 
Q 2419 397 2687 759 
Q 2956 1122 2956 1747 
Q 2956 2369 2687 2733 
Q 2419 3097 1959 3097 
z
M 1959 3584 
Q 2709 3584 3137 3096 
Q 3566 2609 3566 1747 
Q 3566 888 3137 398 
Q 2709 -91 1959 -91 
Q 1206 -91 779 398 
Q 353 888 353 1747 
Q 353 2609 779 3096 
Q 1206 3584 1959 3584 
z
" transform="scale(0.015625)"/>
       <path id="DejaVuSans-43" d="M 4122 4306 
L 4122 3641 
Q 3803 3938 3442 4084 
Q 3081 4231 2675 4231 
Q 1875 4231 1450 3742 
Q 1025 3253 1025 2328 
Q 1025 1406 1450 917 
Q 1875 428 2675 428 
Q 3081 428 3442 575 
Q 3803 722 4122 1019 
L 4122 359 
Q 3791 134 3420 21 
Q 3050 -91 2638 -91 
Q 1578 -91 968 557 
Q 359 1206 359 2328 
Q 359 3453 968 4101 
Q 1578 4750 2638 4750 
Q 3056 4750 3426 4639 
Q 3797 4528 4122 4306 
z
" transform="scale(0.015625)"/>
       <path id="DejaVuSans-6c" d="M 603 4863 
L 1178 4863 
L 1178 0 
L 603 0 
L 603 4863 
z
" transform="scale(0.015625)"/>
       <path id="DejaVuSans-75" d="M 544 1381 
L 544 3500 
L 1119 3500 
L 1119 1403 
Q 1119 906 1312 657 
Q 1506 409 1894 409 
Q 2359 409 2629 706 
Q 2900 1003 2900 1516 
L 2900 3500 
L 3475 3500 
L 3475 0 
L 2900 0 
L 2900 538 
Q 2691 219 2414 64 
Q 2138 -91 1772 -91 
Q 1169 -91 856 284 
Q 544 659 544 1381 
z
M 1991 3584 
L 1991 3584 
z
" transform="scale(0.015625)"/>
       <path id="DejaVuSans-73" d="M 2834 3397 
L 2834 2853 
Q 2591 2978 2328 3040 
Q 2066 3103 1784 3103 
Q 1356 3103 1142 2972 
Q 928 2841 928 2578 
Q 928 2378 1081 2264 
Q 1234 2150 1697 2047 
L 1894 2003 
Q 2506 1872 2764 1633 
Q 3022 1394 3022 966 
Q 3022 478 2636 193 
Q 2250 -91 1575 -91 
Q 1294 -91 989 -36 
Q 684 19 347 128 
L 347 722 
Q 666 556 975 473 
Q 1284 391 1588 391 
Q 1994 391 2212 530 
Q 2431 669 2431 922 
Q 2431 1156 2273 1281 
Q 2116 1406 1581 1522 
L 1381 1569 
Q 847 1681 609 1914 
Q 372 2147 372 2553 
Q 372 3047 722 3315 
Q 1072 3584 1716 3584 
Q 2034 3584 2315 3537 
Q 2597 3491 2834 3397 
z
" transform="scale(0.015625)"/>
       <path id="DejaVuSans-74" d="M 1172 4494 
L 1172 3500 
L 2356 3500 
L 2356 3053 
L 1172 3053 
L 1172 1153 
Q 1172 725 1289 603 
Q 1406 481 1766 481 
L 2356 481 
L 2356 0 
L 1766 0 
Q 1100 0 847 248 
Q 594 497 594 1153 
L 594 3053 
L 172 3053 
L 172 3500 
L 594 3500 
L 594 4494 
L 1172 4494 
z
" transform="scale(0.015625)"/>
       <path id="DejaVuSans-65" d="M 3597 1894 
L 3597 1613 
L 953 1613 
Q 991 1019 1311 708 
Q 1631 397 2203 397 
Q 2534 397 2845 478 
Q 3156 559 3463 722 
L 3463 178 
Q 3153 47 2828 -22 
Q 2503 -91 2169 -91 
Q 1331 -91 842 396 
Q 353 884 353 1716 
Q 353 2575 817 3079 
Q 1281 3584 2069 3584 
Q 2775 3584 3186 3129 
Q 3597 2675 3597 1894 
z
M 3022 2063 
Q 3016 2534 2758 2815 
Q 2500 3097 2075 3097 
Q 1594 3097 1305 2825 
Q 1016 2553 972 2059 
L 3022 2063 
z
" transform="scale(0.015625)"/>
       <path id="DejaVuSans-72" d="M 2631 2963 
Q 2534 3019 2420 3045 
Q 2306 3072 2169 3072 
Q 1681 3072 1420 2755 
Q 1159 2438 1159 1844 
L 1159 0 
L 581 0 
L 581 3500 
L 1159 3500 
L 1159 2956 
Q 1341 3275 1631 3429 
Q 1922 3584 2338 3584 
Q 2397 3584 2469 3576 
Q 2541 3569 2628 3553 
L 2631 2963 
z
" transform="scale(0.015625)"/>
       <path id="DejaVuSans-69" d="M 603 3500 
L 1178 3500 
L 1178 0 
L 603 0 
L 603 3500 
z
M 603 4863 
L 1178 4863 
L 1178 4134 
L 603 4134 
L 603 4863 
z
" transform="scale(0.015625)"/>
       <path id="DejaVuSans-6e" d="M 3513 2113 
L 3513 0 
L 2938 0 
L 2938 2094 
Q 2938 2591 2744 2837 
Q 2550 3084 2163 3084 
Q 1697 3084 1428 2787 
Q 1159 2491 1159 1978 
L 1159 0 
L 581 0 
L 581 3500 
L 1159 3500 
L 1159 2956 
Q 1366 3272 1645 3428 
Q 1925 3584 2291 3584 
Q 2894 3584 3203 3211 
Q 3513 2838 3513 2113 
z
" transform="scale(0.015625)"/>
       <path id="DejaVuSans-67" d="M 2906 1791 
Q 2906 2416 2648 2759 
Q 2391 3103 1925 3103 
Q 1463 3103 1205 2759 
Q 947 2416 947 1791 
Q 947 1169 1205 825 
Q 1463 481 1925 481 
Q 2391 481 2648 825 
Q 2906 1169 2906 1791 
z
M 3481 434 
Q 3481 -459 3084 -895 
Q 2688 -1331 1869 -1331 
Q 1566 -1331 1297 -1286 
Q 1028 -1241 775 -1147 
L 775 -588 
Q 1028 -725 1275 -790 
Q 1522 -856 1778 -856 
Q 2344 -856 2625 -561 
Q 2906 -266 2906 331 
L 2906 616 
Q 2728 306 2450 153 
Q 2172 0 1784 0 
Q 1141 0 747 490 
Q 353 981 353 1791 
Q 353 2603 747 3093 
Q 1141 3584 1784 3584 
Q 2172 3584 2450 3431 
Q 2728 3278 2906 2969 
L 2906 3500 
L 3481 3500 
L 3481 434 
z
" transform="scale(0.015625)"/>
       <path id="DejaVuSans-52" d="M 2841 2188 
Q 3044 2119 3236 1894 
Q 3428 1669 3622 1275 
L 4263 0 
L 3584 0 
L 2988 1197 
Q 2756 1666 2539 1819 
Q 2322 1972 1947 1972 
L 1259 1972 
L 1259 0 
L 628 0 
L 628 4666 
L 2053 4666 
Q 2853 4666 3247 4331 
Q 3641 3997 3641 3322 
Q 3641 2881 3436 2590 
Q 3231 2300 2841 2188 
z
M 1259 4147 
L 1259 2491 
L 2053 2491 
Q 2509 2491 2742 2702 
Q 2975 2913 2975 3322 
Q 2975 3731 2742 3939 
Q 2509 4147 2053 4147 
L 1259 4147 
z
" transform="scale(0.015625)"/>
       <path id="DejaVuSans-61" d="M 2194 1759 
Q 1497 1759 1228 1600 
Q 959 1441 959 1056 
Q 959 750 1161 570 
Q 1363 391 1709 391 
Q 2188 391 2477 730 
Q 2766 1069 2766 1631 
L 2766 1759 
L 2194 1759 
z
M 3341 1997 
L 3341 0 
L 2766 0 
L 2766 531 
Q 2569 213 2275 61 
Q 1981 -91 1556 -91 
Q 1019 -91 701 211 
Q 384 513 384 1019 
Q 384 1609 779 1909 
Q 1175 2209 1959 2209 
L 2766 2209 
L 2766 2266 
Q 2766 2663 2505 2880 
Q 2244 3097 1772 3097 
Q 1472 3097 1187 3025 
Q 903 2953 641 2809 
L 641 3341 
Q 956 3463 1253 3523 
Q 1550 3584 1831 3584 
Q 2591 3584 2966 3190 
Q 3341 2797 3341 1997 
z
" transform="scale(0.015625)"/>
       <path id="DejaVuSans-64" d="M 2906 2969 
L 2906 4863 
L 3481 4863 
L 3481 0 
L 2906 0 
L 2906 525 
Q 2725 213 2448 61 
Q 2172 -91 1784 -91 
Q 1150 -91 751 415 
Q 353 922 353 1747 
Q 353 2572 751 3078 
Q 1150 3584 1784 3584 
Q 2172 3584 2448 3432 
Q 2725 3281 2906 2969 
z
M 947 1747 
Q 947 1113 1208 752 
Q 1469 391 1925 391 
Q 2381 391 2643 752 
Q 2906 1113 2906 1747 
Q 2906 2381 2643 2742 
Q 2381 3103 1925 3103 
Q 1469 3103 1208 2742 
Q 947 2381 947 1747 
z
" transform="scale(0.015625)"/>
       <path id="DejaVuSans-6d" d="M 3328 2828 
Q 3544 3216 3844 3400 
Q 4144 3584 4550 3584 
Q 5097 3584 5394 3201 
Q 5691 2819 5691 2113 
L 5691 0 
L 5113 0 
L 5113 2094 
Q 5113 2597 4934 2840 
Q 4756 3084 4391 3084 
Q 3944 3084 3684 2787 
Q 3425 2491 3425 1978 
L 3425 0 
L 2847 0 
L 2847 2094 
Q 2847 2600 2669 2842 
Q 2491 3084 2119 3084 
Q 1678 3084 1418 2786 
Q 1159 2488 1159 1978 
L 1159 0 
L 581 0 
L 581 3500 
L 1159 3500 
L 1159 2956 
Q 1356 3278 1631 3431 
Q 1906 3584 2284 3584 
Q 2666 3584 2933 3390 
Q 3200 3197 3328 2828 
z
" transform="scale(0.015625)"/>
       <path id="DejaVuSans-53" d="M 3425 4513 
L 3425 3897 
Q 3066 4069 2747 4153 
Q 2428 4238 2131 4238 
Q 1616 4238 1336 4038 
Q 1056 3838 1056 3469 
Q 1056 3159 1242 3001 
Q 1428 2844 1947 2747 
L 2328 2669 
Q 3034 2534 3370 2195 
Q 3706 1856 3706 1288 
Q 3706 609 3251 259 
Q 2797 -91 1919 -91 
Q 1588 -91 1214 -16 
Q 841 59 441 206 
L 441 856 
Q 825 641 1194 531 
Q 1563 422 1919 422 
Q 2459 422 2753 634 
Q 3047 847 3047 1241 
Q 3047 1584 2836 1778 
Q 2625 1972 2144 2069 
L 1759 2144 
Q 1053 2284 737 2584 
Q 422 2884 422 3419 
Q 422 4038 858 4394 
Q 1294 4750 2059 4750 
Q 2388 4750 2728 4690 
Q 3069 4631 3425 4513 
z
" transform="scale(0.015625)"/>
       <path id="DejaVuSans-70" d="M 1159 525 
L 1159 -1331 
L 581 -1331 
L 581 3500 
L 1159 3500 
L 1159 2969 
Q 1341 3281 1617 3432 
Q 1894 3584 2278 3584 
Q 2916 3584 3314 3078 
Q 3713 2572 3713 1747 
Q 3713 922 3314 415 
Q 2916 -91 2278 -91 
Q 1894 -91 1617 61 
Q 1341 213 1159 525 
z
M 3116 1747 
Q 3116 2381 2855 2742 
Q 2594 3103 2138 3103 
Q 1681 3103 1420 2742 
Q 1159 2381 1159 1747 
Q 1159 1113 1420 752 
Q 1681 391 2138 391 
Q 2594 391 2855 752 
Q 3116 1113 3116 1747 
z
" transform="scale(0.015625)"/>
      </defs>
      <use xlink:href="#DejaVuSans-4e"/>
      <use xlink:href="#DejaVuSans-6f" x="74.804688"/>
      <use xlink:href="#DejaVuSans-43" x="135.986328"/>
      <use xlink:href="#DejaVuSans-6c" x="205.810547"/>
      <use xlink:href="#DejaVuSans-75" x="233.59375"/>
      <use xlink:href="#DejaVuSans-73" x="296.972656"/>
      <use xlink:href="#DejaVuSans-74" x="349.072266"/>
      <use xlink:href="#DejaVuSans-65" x="388.28125"/>
      <use xlink:href="#DejaVuSans-72" x="449.804688"/>
      <use xlink:href="#DejaVuSans-69" x="490.917969"/>
      <use xlink:href="#DejaVuSans-6e" x="518.701172"/>
      <use xlink:href="#DejaVuSans-67" x="582.080078"/>
      <use xlink:href="#DejaVuSans-52" x="645.556641"/>
      <use xlink:href="#DejaVuSans-61" x="712.789062"/>
      <use xlink:href="#DejaVuSans-6e" x="774.068359"/>
      <use xlink:href="#DejaVuSans-64" x="837.447266"/>
      <use xlink:href="#DejaVuSans-6f" x="900.923828"/>
      <use xlink:href="#DejaVuSans-6d" x="962.105469"/>
      <use xlink:href="#DejaVuSans-53" x="1059.517578"/>
      <use xlink:href="#DejaVuSans-61" x="1122.994141"/>
      <use xlink:href="#DejaVuSans-6d" x="1184.273438"/>
      <use xlink:href="#DejaVuSans-70" x="1281.685547"/>
      <use xlink:href="#DejaVuSans-6c" x="1345.162109"/>
      <use xlink:href="#DejaVuSans-69" x="1372.945312"/>
      <use xlink:href="#DejaVuSans-6e" x="1400.728516"/>
      <use xlink:href="#DejaVuSans-67" x="1464.107422"/>
     </g>
    </g>
    <g id="line2d_25">
     <path d="M 190.044141 235.008492 
L 198.294141 235.008492 
L 206.544141 235.008492 
" style="fill: none; stroke: #c44e52; stroke-width: 1.5; stroke-linecap: round"/>
    </g>
    <g id="text_18">
     <!-- BoWKmeansRandomSampling -->
     <g style="fill: #262626" transform="translate(213.144141 237.895992) scale(0.0825 -0.0825)">
      <defs>
       <path id="DejaVuSans-42" d="M 1259 2228 
L 1259 519 
L 2272 519 
Q 2781 519 3026 730 
Q 3272 941 3272 1375 
Q 3272 1813 3026 2020 
Q 2781 2228 2272 2228 
L 1259 2228 
z
M 1259 4147 
L 1259 2741 
L 2194 2741 
Q 2656 2741 2882 2914 
Q 3109 3088 3109 3444 
Q 3109 3797 2882 3972 
Q 2656 4147 2194 4147 
L 1259 4147 
z
M 628 4666 
L 2241 4666 
Q 2963 4666 3353 4366 
Q 3744 4066 3744 3513 
Q 3744 3084 3544 2831 
Q 3344 2578 2956 2516 
Q 3422 2416 3680 2098 
Q 3938 1781 3938 1306 
Q 3938 681 3513 340 
Q 3088 0 2303 0 
L 628 0 
L 628 4666 
z
" transform="scale(0.015625)"/>
       <path id="DejaVuSans-57" d="M 213 4666 
L 850 4666 
L 1831 722 
L 2809 4666 
L 3519 4666 
L 4500 722 
L 5478 4666 
L 6119 4666 
L 4947 0 
L 4153 0 
L 3169 4050 
L 2175 0 
L 1381 0 
L 213 4666 
z
" transform="scale(0.015625)"/>
       <path id="DejaVuSans-4b" d="M 628 4666 
L 1259 4666 
L 1259 2694 
L 3353 4666 
L 4166 4666 
L 1850 2491 
L 4331 0 
L 3500 0 
L 1259 2247 
L 1259 0 
L 628 0 
L 628 4666 
z
" transform="scale(0.015625)"/>
      </defs>
      <use xlink:href="#DejaVuSans-42"/>
      <use xlink:href="#DejaVuSans-6f" x="68.603516"/>
      <use xlink:href="#DejaVuSans-57" x="129.785156"/>
      <use xlink:href="#DejaVuSans-4b" x="228.662109"/>
      <use xlink:href="#DejaVuSans-6d" x="294.238281"/>
      <use xlink:href="#DejaVuSans-65" x="391.650391"/>
      <use xlink:href="#DejaVuSans-61" x="453.173828"/>
      <use xlink:href="#DejaVuSans-6e" x="514.453125"/>
      <use xlink:href="#DejaVuSans-73" x="577.832031"/>
      <use xlink:href="#DejaVuSans-52" x="629.931641"/>
      <use xlink:href="#DejaVuSans-61" x="697.164062"/>
      <use xlink:href="#DejaVuSans-6e" x="758.443359"/>
      <use xlink:href="#DejaVuSans-64" x="821.822266"/>
      <use xlink:href="#DejaVuSans-6f" x="885.298828"/>
      <use xlink:href="#DejaVuSans-6d" x="946.480469"/>
      <use xlink:href="#DejaVuSans-53" x="1043.892578"/>
      <use xlink:href="#DejaVuSans-61" x="1107.369141"/>
      <use xlink:href="#DejaVuSans-6d" x="1168.648438"/>
      <use xlink:href="#DejaVuSans-70" x="1266.060547"/>
      <use xlink:href="#DejaVuSans-6c" x="1329.537109"/>
      <use xlink:href="#DejaVuSans-69" x="1357.320312"/>
      <use xlink:href="#DejaVuSans-6e" x="1385.103516"/>
      <use xlink:href="#DejaVuSans-67" x="1448.482422"/>
     </g>
    </g>
    <g id="line2d_26">
     <path d="M 190.044141 247.117945 
L 198.294141 247.117945 
L 206.544141 247.117945 
" style="fill: none; stroke: #1a1a1a; stroke-width: 1.5; stroke-linecap: round"/>
    </g>
    <g id="text_19">
     <!-- BoWKmeansBestUsageChoice -->
     <g style="fill: #262626" transform="translate(213.144141 250.005445) scale(0.0825 -0.0825)">
      <defs>
       <path id="DejaVuSans-55" d="M 556 4666 
L 1191 4666 
L 1191 1831 
Q 1191 1081 1462 751 
Q 1734 422 2344 422 
Q 2950 422 3222 751 
Q 3494 1081 3494 1831 
L 3494 4666 
L 4128 4666 
L 4128 1753 
Q 4128 841 3676 375 
Q 3225 -91 2344 -91 
Q 1459 -91 1007 375 
Q 556 841 556 1753 
L 556 4666 
z
" transform="scale(0.015625)"/>
       <path id="DejaVuSans-68" d="M 3513 2113 
L 3513 0 
L 2938 0 
L 2938 2094 
Q 2938 2591 2744 2837 
Q 2550 3084 2163 3084 
Q 1697 3084 1428 2787 
Q 1159 2491 1159 1978 
L 1159 0 
L 581 0 
L 581 4863 
L 1159 4863 
L 1159 2956 
Q 1366 3272 1645 3428 
Q 1925 3584 2291 3584 
Q 2894 3584 3203 3211 
Q 3513 2838 3513 2113 
z
" transform="scale(0.015625)"/>
       <path id="DejaVuSans-63" d="M 3122 3366 
L 3122 2828 
Q 2878 2963 2633 3030 
Q 2388 3097 2138 3097 
Q 1578 3097 1268 2742 
Q 959 2388 959 1747 
Q 959 1106 1268 751 
Q 1578 397 2138 397 
Q 2388 397 2633 464 
Q 2878 531 3122 666 
L 3122 134 
Q 2881 22 2623 -34 
Q 2366 -91 2075 -91 
Q 1284 -91 818 406 
Q 353 903 353 1747 
Q 353 2603 823 3093 
Q 1294 3584 2113 3584 
Q 2378 3584 2631 3529 
Q 2884 3475 3122 3366 
z
" transform="scale(0.015625)"/>
      </defs>
      <use xlink:href="#DejaVuSans-42"/>
      <use xlink:href="#DejaVuSans-6f" x="68.603516"/>
      <use xlink:href="#DejaVuSans-57" x="129.785156"/>
      <use xlink:href="#DejaVuSans-4b" x="228.662109"/>
      <use xlink:href="#DejaVuSans-6d" x="294.238281"/>
      <use xlink:href="#DejaVuSans-65" x="391.650391"/>
      <use xlink:href="#DejaVuSans-61" x="453.173828"/>
      <use xlink:href="#DejaVuSans-6e" x="514.453125"/>
      <use xlink:href="#DejaVuSans-73" x="577.832031"/>
      <use xlink:href="#DejaVuSans-42" x="629.931641"/>
      <use xlink:href="#DejaVuSans-65" x="698.535156"/>
      <use xlink:href="#DejaVuSans-73" x="760.058594"/>
      <use xlink:href="#DejaVuSans-74" x="812.158203"/>
      <use xlink:href="#DejaVuSans-55" x="851.367188"/>
      <use xlink:href="#DejaVuSans-73" x="924.560547"/>
      <use xlink:href="#DejaVuSans-61" x="976.660156"/>
      <use xlink:href="#DejaVuSans-67" x="1037.939453"/>
      <use xlink:href="#DejaVuSans-65" x="1101.416016"/>
      <use xlink:href="#DejaVuSans-43" x="1162.939453"/>
      <use xlink:href="#DejaVuSans-68" x="1232.763672"/>
      <use xlink:href="#DejaVuSans-6f" x="1296.142578"/>
      <use xlink:href="#DejaVuSans-69" x="1357.324219"/>
      <use xlink:href="#DejaVuSans-63" x="1385.107422"/>
      <use xlink:href="#DejaVuSans-65" x="1440.087891"/>
     </g>
    </g>
    <g id="line2d_27">
     <path d="M 190.044141 259.227398 
L 198.294141 259.227398 
L 206.544141 259.227398 
" style="fill: none; stroke: #55a868; stroke-width: 1.5; stroke-linecap: round"/>
    </g>
    <g id="text_20">
     <!-- KmedoidsRandomSampling -->
     <g style="fill: #262626" transform="translate(213.144141 262.114898) scale(0.0825 -0.0825)">
      <use xlink:href="#DejaVuSans-4b"/>
      <use xlink:href="#DejaVuSans-6d" x="65.576172"/>
      <use xlink:href="#DejaVuSans-65" x="162.988281"/>
      <use xlink:href="#DejaVuSans-64" x="224.511719"/>
      <use xlink:href="#DejaVuSans-6f" x="287.988281"/>
      <use xlink:href="#DejaVuSans-69" x="349.169922"/>
      <use xlink:href="#DejaVuSans-64" x="376.953125"/>
      <use xlink:href="#DejaVuSans-73" x="440.429688"/>
      <use xlink:href="#DejaVuSans-52" x="492.529297"/>
      <use xlink:href="#DejaVuSans-61" x="559.761719"/>
      <use xlink:href="#DejaVuSans-6e" x="621.041016"/>
      <use xlink:href="#DejaVuSans-64" x="684.419922"/>
      <use xlink:href="#DejaVuSans-6f" x="747.896484"/>
      <use xlink:href="#DejaVuSans-6d" x="809.078125"/>
      <use xlink:href="#DejaVuSans-53" x="906.490234"/>
      <use xlink:href="#DejaVuSans-61" x="969.966797"/>
      <use xlink:href="#DejaVuSans-6d" x="1031.246094"/>
      <use xlink:href="#DejaVuSans-70" x="1128.658203"/>
      <use xlink:href="#DejaVuSans-6c" x="1192.134766"/>
      <use xlink:href="#DejaVuSans-69" x="1219.917969"/>
      <use xlink:href="#DejaVuSans-6e" x="1247.701172"/>
      <use xlink:href="#DejaVuSans-67" x="1311.080078"/>
     </g>
    </g>
    <g id="line2d_28">
     <path d="M 190.044141 271.336852 
L 198.294141 271.336852 
L 206.544141 271.336852 
" style="fill: none; stroke: #64b5cd; stroke-width: 1.5; stroke-linecap: round"/>
    </g>
    <g id="text_21">
     <!-- W2VKmeansRandomSampling -->
     <g style="fill: #262626" transform="translate(213.144141 274.224352) scale(0.0825 -0.0825)">
      <defs>
       <path id="DejaVuSans-56" d="M 1831 0 
L 50 4666 
L 709 4666 
L 2188 738 
L 3669 4666 
L 4325 4666 
L 2547 0 
L 1831 0 
z
" transform="scale(0.015625)"/>
      </defs>
      <use xlink:href="#DejaVuSans-57"/>
      <use xlink:href="#DejaVuSans-32" x="98.876953"/>
      <use xlink:href="#DejaVuSans-56" x="162.5"/>
      <use xlink:href="#DejaVuSans-4b" x="230.908203"/>
      <use xlink:href="#DejaVuSans-6d" x="296.484375"/>
      <use xlink:href="#DejaVuSans-65" x="393.896484"/>
      <use xlink:href="#DejaVuSans-61" x="455.419922"/>
      <use xlink:href="#DejaVuSans-6e" x="516.699219"/>
      <use xlink:href="#DejaVuSans-73" x="580.078125"/>
      <use xlink:href="#DejaVuSans-52" x="632.177734"/>
      <use xlink:href="#DejaVuSans-61" x="699.410156"/>
      <use xlink:href="#DejaVuSans-6e" x="760.689453"/>
      <use xlink:href="#DejaVuSans-64" x="824.068359"/>
      <use xlink:href="#DejaVuSans-6f" x="887.544922"/>
      <use xlink:href="#DejaVuSans-6d" x="948.726562"/>
      <use xlink:href="#DejaVuSans-53" x="1046.138672"/>
      <use xlink:href="#DejaVuSans-61" x="1109.615234"/>
      <use xlink:href="#DejaVuSans-6d" x="1170.894531"/>
      <use xlink:href="#DejaVuSans-70" x="1268.306641"/>
      <use xlink:href="#DejaVuSans-6c" x="1331.783203"/>
      <use xlink:href="#DejaVuSans-69" x="1359.566406"/>
      <use xlink:href="#DejaVuSans-6e" x="1387.349609"/>
      <use xlink:href="#DejaVuSans-67" x="1450.728516"/>
     </g>
    </g>
    <g id="line2d_29">
     <path d="M 190.044141 283.446305 
L 198.294141 283.446305 
L 206.544141 283.446305 
" style="fill: none; stroke: #8172b3; stroke-width: 1.5; stroke-linecap: round"/>
    </g>
    <g id="text_22">
     <!-- AgglutineHierarchyClusteringRandomSampling -->
     <g style="fill: #262626" transform="translate(213.144141 286.333805) scale(0.0825 -0.0825)">
      <defs>
       <path id="DejaVuSans-41" d="M 2188 4044 
L 1331 1722 
L 3047 1722 
L 2188 4044 
z
M 1831 4666 
L 2547 4666 
L 4325 0 
L 3669 0 
L 3244 1197 
L 1141 1197 
L 716 0 
L 50 0 
L 1831 4666 
z
" transform="scale(0.015625)"/>
       <path id="DejaVuSans-48" d="M 628 4666 
L 1259 4666 
L 1259 2753 
L 3553 2753 
L 3553 4666 
L 4184 4666 
L 4184 0 
L 3553 0 
L 3553 2222 
L 1259 2222 
L 1259 0 
L 628 0 
L 628 4666 
z
" transform="scale(0.015625)"/>
       <path id="DejaVuSans-79" d="M 2059 -325 
Q 1816 -950 1584 -1140 
Q 1353 -1331 966 -1331 
L 506 -1331 
L 506 -850 
L 844 -850 
Q 1081 -850 1212 -737 
Q 1344 -625 1503 -206 
L 1606 56 
L 191 3500 
L 800 3500 
L 1894 763 
L 2988 3500 
L 3597 3500 
L 2059 -325 
z
" transform="scale(0.015625)"/>
      </defs>
      <use xlink:href="#DejaVuSans-41"/>
      <use xlink:href="#DejaVuSans-67" x="68.408203"/>
      <use xlink:href="#DejaVuSans-67" x="131.884766"/>
      <use xlink:href="#DejaVuSans-6c" x="195.361328"/>
      <use xlink:href="#DejaVuSans-75" x="223.144531"/>
      <use xlink:href="#DejaVuSans-74" x="286.523438"/>
      <use xlink:href="#DejaVuSans-69" x="325.732422"/>
      <use xlink:href="#DejaVuSans-6e" x="353.515625"/>
      <use xlink:href="#DejaVuSans-65" x="416.894531"/>
      <use xlink:href="#DejaVuSans-48" x="478.417969"/>
      <use xlink:href="#DejaVuSans-69" x="553.613281"/>
      <use xlink:href="#DejaVuSans-65" x="581.396484"/>
      <use xlink:href="#DejaVuSans-72" x="642.919922"/>
      <use xlink:href="#DejaVuSans-61" x="684.033203"/>
      <use xlink:href="#DejaVuSans-72" x="745.3125"/>
      <use xlink:href="#DejaVuSans-63" x="784.175781"/>
      <use xlink:href="#DejaVuSans-68" x="839.15625"/>
      <use xlink:href="#DejaVuSans-79" x="902.535156"/>
      <use xlink:href="#DejaVuSans-43" x="961.714844"/>
      <use xlink:href="#DejaVuSans-6c" x="1031.539062"/>
      <use xlink:href="#DejaVuSans-75" x="1059.322266"/>
      <use xlink:href="#DejaVuSans-73" x="1122.701172"/>
      <use xlink:href="#DejaVuSans-74" x="1174.800781"/>
      <use xlink:href="#DejaVuSans-65" x="1214.009766"/>
      <use xlink:href="#DejaVuSans-72" x="1275.533203"/>
      <use xlink:href="#DejaVuSans-69" x="1316.646484"/>
      <use xlink:href="#DejaVuSans-6e" x="1344.429688"/>
      <use xlink:href="#DejaVuSans-67" x="1407.808594"/>
      <use xlink:href="#DejaVuSans-52" x="1471.285156"/>
      <use xlink:href="#DejaVuSans-61" x="1538.517578"/>
      <use xlink:href="#DejaVuSans-6e" x="1599.796875"/>
      <use xlink:href="#DejaVuSans-64" x="1663.175781"/>
      <use xlink:href="#DejaVuSans-6f" x="1726.652344"/>
      <use xlink:href="#DejaVuSans-6d" x="1787.833984"/>
      <use xlink:href="#DejaVuSans-53" x="1885.246094"/>
      <use xlink:href="#DejaVuSans-61" x="1948.722656"/>
      <use xlink:href="#DejaVuSans-6d" x="2010.001953"/>
      <use xlink:href="#DejaVuSans-70" x="2107.414062"/>
      <use xlink:href="#DejaVuSans-6c" x="2170.890625"/>
      <use xlink:href="#DejaVuSans-69" x="2198.673828"/>
      <use xlink:href="#DejaVuSans-6e" x="2226.457031"/>
      <use xlink:href="#DejaVuSans-67" x="2289.835938"/>
     </g>
    </g>
    <g id="line2d_30">
     <path d="M 190.044141 295.555758 
L 198.294141 295.555758 
L 206.544141 295.555758 
" style="fill: none; stroke: #ccb974; stroke-width: 1.5; stroke-linecap: round"/>
    </g>
    <g id="text_23">
     <!-- W2VKmeansBestUsageChoice -->
     <g style="fill: #262626" transform="translate(213.144141 298.443258) scale(0.0825 -0.0825)">
      <use xlink:href="#DejaVuSans-57"/>
      <use xlink:href="#DejaVuSans-32" x="98.876953"/>
      <use xlink:href="#DejaVuSans-56" x="162.5"/>
      <use xlink:href="#DejaVuSans-4b" x="230.908203"/>
      <use xlink:href="#DejaVuSans-6d" x="296.484375"/>
      <use xlink:href="#DejaVuSans-65" x="393.896484"/>
      <use xlink:href="#DejaVuSans-61" x="455.419922"/>
      <use xlink:href="#DejaVuSans-6e" x="516.699219"/>
      <use xlink:href="#DejaVuSans-73" x="580.078125"/>
      <use xlink:href="#DejaVuSans-42" x="632.177734"/>
      <use xlink:href="#DejaVuSans-65" x="700.78125"/>
      <use xlink:href="#DejaVuSans-73" x="762.304688"/>
      <use xlink:href="#DejaVuSans-74" x="814.404297"/>
      <use xlink:href="#DejaVuSans-55" x="853.613281"/>
      <use xlink:href="#DejaVuSans-73" x="926.806641"/>
      <use xlink:href="#DejaVuSans-61" x="978.90625"/>
      <use xlink:href="#DejaVuSans-67" x="1040.185547"/>
      <use xlink:href="#DejaVuSans-65" x="1103.662109"/>
      <use xlink:href="#DejaVuSans-43" x="1165.185547"/>
      <use xlink:href="#DejaVuSans-68" x="1235.009766"/>
      <use xlink:href="#DejaVuSans-6f" x="1298.388672"/>
      <use xlink:href="#DejaVuSans-69" x="1359.570312"/>
      <use xlink:href="#DejaVuSans-63" x="1387.353516"/>
      <use xlink:href="#DejaVuSans-65" x="1442.333984"/>
     </g>
    </g>
   </g>
  </g>
 </g>
 <defs>
  <clipPath id="pd8f92356c5">
   <rect x="57.6" y="41.472" width="357.12" height="266.112"/>
  </clipPath>
 </defs>
</svg>
