<?xml version="1.0" encoding="utf-8" standalone="no"?>
<!DOCTYPE svg PUBLIC "-//W3C//DTD SVG 1.1//EN"
  "http://www.w3.org/Graphics/SVG/1.1/DTD/svg11.dtd">
<svg xmlns:xlink="http://www.w3.org/1999/xlink" width="460.8pt" height="345.6pt" viewBox="0 0 460.8 345.6" xmlns="http://www.w3.org/2000/svg" version="1.1">
 <metadata>
  <rdf:RDF xmlns:dc="http://purl.org/dc/elements/1.1/" xmlns:cc="http://creativecommons.org/ns#" xmlns:rdf="http://www.w3.org/1999/02/22-rdf-syntax-ns#">
   <cc:Work>
    <dc:type rdf:resource="http://purl.org/dc/dcmitype/StillImage"/>
    <dc:date>2023-01-25T14:40:10.784933</dc:date>
    <dc:format>image/svg+xml</dc:format>
    <dc:creator>
     <cc:Agent>
      <dc:title>Matplotlib v3.6.2, https://matplotlib.org/</dc:title>
     </cc:Agent>
    </dc:creator>
   </cc:Work>
  </rdf:RDF>
 </metadata>
 <defs>
  <style type="text/css">*{stroke-linejoin: round; stroke-linecap: butt}</style>
 </defs>
 <g id="figure_1">
  <g id="patch_1">
   <path d="M 0 345.6 
L 460.8 345.6 
L 460.8 0 
L 0 0 
z
" style="fill: #ffffff"/>
  </g>
  <g id="axes_1">
   <g id="patch_2">
    <path d="M 57.6 307.584 
L 414.72 307.584 
L 414.72 41.472 
L 57.6 41.472 
z
" style="fill: #eaeaf2"/>
   </g>
   <g id="matplotlib.axis_1">
    <g id="xtick_1">
     <g id="line2d_1">
      <path d="M 68.186561 307.584 
L 68.186561 41.472 
" clip-path="url(#p277f3c43ec)" style="fill: none; stroke: #ffffff; stroke-linecap: round"/>
     </g>
     <g id="text_1">
      <!-- 0 -->
      <g style="fill: #262626" transform="translate(64.687186 325.442281) scale(0.11 -0.11)">
       <defs>
        <path id="DejaVuSans-30" d="M 2034 4250 
Q 1547 4250 1301 3770 
Q 1056 3291 1056 2328 
Q 1056 1369 1301 889 
Q 1547 409 2034 409 
Q 2525 409 2770 889 
Q 3016 1369 3016 2328 
Q 3016 3291 2770 3770 
Q 2525 4250 2034 4250 
z
M 2034 4750 
Q 2819 4750 3233 4129 
Q 3647 3509 3647 2328 
Q 3647 1150 3233 529 
Q 2819 -91 2034 -91 
Q 1250 -91 836 529 
Q 422 1150 422 2328 
Q 422 3509 836 4129 
Q 1250 4750 2034 4750 
z
" transform="scale(0.015625)"/>
       </defs>
       <use xlink:href="#DejaVuSans-30"/>
      </g>
     </g>
    </g>
    <g id="xtick_2">
     <g id="line2d_2">
      <path d="M 124.648221 307.584 
L 124.648221 41.472 
" clip-path="url(#p277f3c43ec)" style="fill: none; stroke: #ffffff; stroke-linecap: round"/>
     </g>
     <g id="text_2">
      <!-- 20 -->
      <g style="fill: #262626" transform="translate(117.649471 325.442281) scale(0.11 -0.11)">
       <defs>
        <path id="DejaVuSans-32" d="M 1228 531 
L 3431 531 
L 3431 0 
L 469 0 
L 469 531 
Q 828 903 1448 1529 
Q 2069 2156 2228 2338 
Q 2531 2678 2651 2914 
Q 2772 3150 2772 3378 
Q 2772 3750 2511 3984 
Q 2250 4219 1831 4219 
Q 1534 4219 1204 4116 
Q 875 4013 500 3803 
L 500 4441 
Q 881 4594 1212 4672 
Q 1544 4750 1819 4750 
Q 2544 4750 2975 4387 
Q 3406 4025 3406 3419 
Q 3406 3131 3298 2873 
Q 3191 2616 2906 2266 
Q 2828 2175 2409 1742 
Q 1991 1309 1228 531 
z
" transform="scale(0.015625)"/>
       </defs>
       <use xlink:href="#DejaVuSans-32"/>
       <use xlink:href="#DejaVuSans-30" x="63.623047"/>
      </g>
     </g>
    </g>
    <g id="xtick_3">
     <g id="line2d_3">
      <path d="M 181.109881 307.584 
L 181.109881 41.472 
" clip-path="url(#p277f3c43ec)" style="fill: none; stroke: #ffffff; stroke-linecap: round"/>
     </g>
     <g id="text_3">
      <!-- 40 -->
      <g style="fill: #262626" transform="translate(174.111131 325.442281) scale(0.11 -0.11)">
       <defs>
        <path id="DejaVuSans-34" d="M 2419 4116 
L 825 1625 
L 2419 1625 
L 2419 4116 
z
M 2253 4666 
L 3047 4666 
L 3047 1625 
L 3713 1625 
L 3713 1100 
L 3047 1100 
L 3047 0 
L 2419 0 
L 2419 1100 
L 313 1100 
L 313 1709 
L 2253 4666 
z
" transform="scale(0.015625)"/>
       </defs>
       <use xlink:href="#DejaVuSans-34"/>
       <use xlink:href="#DejaVuSans-30" x="63.623047"/>
      </g>
     </g>
    </g>
    <g id="xtick_4">
     <g id="line2d_4">
      <path d="M 237.571542 307.584 
L 237.571542 41.472 
" clip-path="url(#p277f3c43ec)" style="fill: none; stroke: #ffffff; stroke-linecap: round"/>
     </g>
     <g id="text_4">
      <!-- 60 -->
      <g style="fill: #262626" transform="translate(230.572792 325.442281) scale(0.11 -0.11)">
       <defs>
        <path id="DejaVuSans-36" d="M 2113 2584 
Q 1688 2584 1439 2293 
Q 1191 2003 1191 1497 
Q 1191 994 1439 701 
Q 1688 409 2113 409 
Q 2538 409 2786 701 
Q 3034 994 3034 1497 
Q 3034 2003 2786 2293 
Q 2538 2584 2113 2584 
z
M 3366 4563 
L 3366 3988 
Q 3128 4100 2886 4159 
Q 2644 4219 2406 4219 
Q 1781 4219 1451 3797 
Q 1122 3375 1075 2522 
Q 1259 2794 1537 2939 
Q 1816 3084 2150 3084 
Q 2853 3084 3261 2657 
Q 3669 2231 3669 1497 
Q 3669 778 3244 343 
Q 2819 -91 2113 -91 
Q 1303 -91 875 529 
Q 447 1150 447 2328 
Q 447 3434 972 4092 
Q 1497 4750 2381 4750 
Q 2619 4750 2861 4703 
Q 3103 4656 3366 4563 
z
" transform="scale(0.015625)"/>
       </defs>
       <use xlink:href="#DejaVuSans-36"/>
       <use xlink:href="#DejaVuSans-30" x="63.623047"/>
      </g>
     </g>
    </g>
    <g id="xtick_5">
     <g id="line2d_5">
      <path d="M 294.033202 307.584 
L 294.033202 41.472 
" clip-path="url(#p277f3c43ec)" style="fill: none; stroke: #ffffff; stroke-linecap: round"/>
     </g>
     <g id="text_5">
      <!-- 80 -->
      <g style="fill: #262626" transform="translate(287.034452 325.442281) scale(0.11 -0.11)">
       <defs>
        <path id="DejaVuSans-38" d="M 2034 2216 
Q 1584 2216 1326 1975 
Q 1069 1734 1069 1313 
Q 1069 891 1326 650 
Q 1584 409 2034 409 
Q 2484 409 2743 651 
Q 3003 894 3003 1313 
Q 3003 1734 2745 1975 
Q 2488 2216 2034 2216 
z
M 1403 2484 
Q 997 2584 770 2862 
Q 544 3141 544 3541 
Q 544 4100 942 4425 
Q 1341 4750 2034 4750 
Q 2731 4750 3128 4425 
Q 3525 4100 3525 3541 
Q 3525 3141 3298 2862 
Q 3072 2584 2669 2484 
Q 3125 2378 3379 2068 
Q 3634 1759 3634 1313 
Q 3634 634 3220 271 
Q 2806 -91 2034 -91 
Q 1263 -91 848 271 
Q 434 634 434 1313 
Q 434 1759 690 2068 
Q 947 2378 1403 2484 
z
M 1172 3481 
Q 1172 3119 1398 2916 
Q 1625 2713 2034 2713 
Q 2441 2713 2670 2916 
Q 2900 3119 2900 3481 
Q 2900 3844 2670 4047 
Q 2441 4250 2034 4250 
Q 1625 4250 1398 4047 
Q 1172 3844 1172 3481 
z
" transform="scale(0.015625)"/>
       </defs>
       <use xlink:href="#DejaVuSans-38"/>
       <use xlink:href="#DejaVuSans-30" x="63.623047"/>
      </g>
     </g>
    </g>
    <g id="xtick_6">
     <g id="line2d_6">
      <path d="M 350.494862 307.584 
L 350.494862 41.472 
" clip-path="url(#p277f3c43ec)" style="fill: none; stroke: #ffffff; stroke-linecap: round"/>
     </g>
     <g id="text_6">
      <!-- 100 -->
      <g style="fill: #262626" transform="translate(339.996737 325.442281) scale(0.11 -0.11)">
       <defs>
        <path id="DejaVuSans-31" d="M 794 531 
L 1825 531 
L 1825 4091 
L 703 3866 
L 703 4441 
L 1819 4666 
L 2450 4666 
L 2450 531 
L 3481 531 
L 3481 0 
L 794 0 
L 794 531 
z
" transform="scale(0.015625)"/>
       </defs>
       <use xlink:href="#DejaVuSans-31"/>
       <use xlink:href="#DejaVuSans-30" x="63.623047"/>
       <use xlink:href="#DejaVuSans-30" x="127.246094"/>
      </g>
     </g>
    </g>
    <g id="xtick_7">
     <g id="line2d_7">
      <path d="M 406.956522 307.584 
L 406.956522 41.472 
" clip-path="url(#p277f3c43ec)" style="fill: none; stroke: #ffffff; stroke-linecap: round"/>
     </g>
     <g id="text_7">
      <!-- 120 -->
      <g style="fill: #262626" transform="translate(396.458397 325.442281) scale(0.11 -0.11)">
       <use xlink:href="#DejaVuSans-31"/>
       <use xlink:href="#DejaVuSans-32" x="63.623047"/>
       <use xlink:href="#DejaVuSans-30" x="127.246094"/>
      </g>
     </g>
    </g>
   </g>
   <g id="matplotlib.axis_2">
    <g id="ytick_1">
     <g id="line2d_8">
      <path d="M 57.6 301.81655 
L 414.72 301.81655 
" clip-path="url(#p277f3c43ec)" style="fill: none; stroke: #ffffff; stroke-linecap: round"/>
     </g>
     <g id="text_8">
      <!-- 0.0 -->
      <g style="fill: #262626" transform="translate(30.606563 305.995691) scale(0.11 -0.11)">
       <defs>
        <path id="DejaVuSans-2e" d="M 684 794 
L 1344 794 
L 1344 0 
L 684 0 
L 684 794 
z
" transform="scale(0.015625)"/>
       </defs>
       <use xlink:href="#DejaVuSans-30"/>
       <use xlink:href="#DejaVuSans-2e" x="63.623047"/>
       <use xlink:href="#DejaVuSans-30" x="95.410156"/>
      </g>
     </g>
    </g>
    <g id="ytick_2">
     <g id="line2d_9">
      <path d="M 57.6 250.905848 
L 414.72 250.905848 
" clip-path="url(#p277f3c43ec)" style="fill: none; stroke: #ffffff; stroke-linecap: round"/>
     </g>
     <g id="text_9">
      <!-- 0.2 -->
      <g style="fill: #262626" transform="translate(30.606563 255.084989) scale(0.11 -0.11)">
       <use xlink:href="#DejaVuSans-30"/>
       <use xlink:href="#DejaVuSans-2e" x="63.623047"/>
       <use xlink:href="#DejaVuSans-32" x="95.410156"/>
      </g>
     </g>
    </g>
    <g id="ytick_3">
     <g id="line2d_10">
      <path d="M 57.6 199.995145 
L 414.72 199.995145 
" clip-path="url(#p277f3c43ec)" style="fill: none; stroke: #ffffff; stroke-linecap: round"/>
     </g>
     <g id="text_10">
      <!-- 0.4 -->
      <g style="fill: #262626" transform="translate(30.606563 204.174286) scale(0.11 -0.11)">
       <use xlink:href="#DejaVuSans-30"/>
       <use xlink:href="#DejaVuSans-2e" x="63.623047"/>
       <use xlink:href="#DejaVuSans-34" x="95.410156"/>
      </g>
     </g>
    </g>
    <g id="ytick_4">
     <g id="line2d_11">
      <path d="M 57.6 149.084443 
L 414.72 149.084443 
" clip-path="url(#p277f3c43ec)" style="fill: none; stroke: #ffffff; stroke-linecap: round"/>
     </g>
     <g id="text_11">
      <!-- 0.6 -->
      <g style="fill: #262626" transform="translate(30.606563 153.263583) scale(0.11 -0.11)">
       <use xlink:href="#DejaVuSans-30"/>
       <use xlink:href="#DejaVuSans-2e" x="63.623047"/>
       <use xlink:href="#DejaVuSans-36" x="95.410156"/>
      </g>
     </g>
    </g>
    <g id="ytick_5">
     <g id="line2d_12">
      <path d="M 57.6 98.17374 
L 414.72 98.17374 
" clip-path="url(#p277f3c43ec)" style="fill: none; stroke: #ffffff; stroke-linecap: round"/>
     </g>
     <g id="text_12">
      <!-- 0.8 -->
      <g style="fill: #262626" transform="translate(30.606563 102.352881) scale(0.11 -0.11)">
       <use xlink:href="#DejaVuSans-30"/>
       <use xlink:href="#DejaVuSans-2e" x="63.623047"/>
       <use xlink:href="#DejaVuSans-38" x="95.410156"/>
      </g>
     </g>
    </g>
    <g id="ytick_6">
     <g id="line2d_13">
      <path d="M 57.6 47.263037 
L 414.72 47.263037 
" clip-path="url(#p277f3c43ec)" style="fill: none; stroke: #ffffff; stroke-linecap: round"/>
     </g>
     <g id="text_13">
      <!-- 1.0 -->
      <g style="fill: #262626" transform="translate(30.606563 51.442178) scale(0.11 -0.11)">
       <use xlink:href="#DejaVuSans-31"/>
       <use xlink:href="#DejaVuSans-2e" x="63.623047"/>
       <use xlink:href="#DejaVuSans-30" x="95.410156"/>
      </g>
     </g>
    </g>
   </g>
   <g id="PolyCollection_1">
    <defs>
     <path id="mfd41ea8308" d="M 73.832727 -64.95717 
L 73.832727 -57.868567 
L 87.948142 -81.338341 
L 102.063557 -97.635046 
L 116.178972 -108.745227 
L 130.294387 -113.565744 
L 144.409802 -127.274307 
L 158.525217 -130.632914 
L 172.640632 -133.838638 
L 186.756047 -139.353439 
L 200.871462 -150.306858 
L 214.986877 -152.163051 
L 229.102292 -153.438321 
L 243.217708 -161.818529 
L 257.333123 -160.633429 
L 271.448538 -164.598551 
L 285.563953 -164.400699 
L 299.679368 -169.912726 
L 313.794783 -170.350358 
L 327.910198 -175.299936 
L 342.025613 -174.663157 
L 356.141028 -179.109345 
L 370.256443 -181.998953 
L 384.371858 -187.324583 
L 398.487273 -187.722029 
L 398.487273 -209.880365 
L 398.487273 -209.880365 
L 384.371858 -208.663214 
L 370.256443 -193.505515 
L 356.141028 -194.260852 
L 342.025613 -194.125763 
L 327.910198 -195.675571 
L 313.794783 -194.051668 
L 299.679368 -189.494143 
L 285.563953 -177.045879 
L 271.448538 -182.769299 
L 257.333123 -176.675049 
L 243.217708 -179.74082 
L 229.102292 -171.658378 
L 214.986877 -168.724165 
L 200.871462 -168.247983 
L 186.756047 -154.043323 
L 172.640632 -148.219678 
L 158.525217 -147.749777 
L 144.409802 -143.940358 
L 130.294387 -125.763668 
L 116.178972 -120.570852 
L 102.063557 -107.242593 
L 87.948142 -90.008757 
L 73.832727 -64.95717 
z
" style="stroke: #4c72b0; stroke-opacity: 0.2"/>
    </defs>
    <g clip-path="url(#p277f3c43ec)">
     <use xlink:href="#mfd41ea8308" x="0" y="345.6" style="fill: #4c72b0; fill-opacity: 0.2; stroke: #4c72b0; stroke-opacity: 0.2"/>
    </g>
   </g>
   <g id="PolyCollection_2">
    <defs>
     <path id="md6c348deee" d="M 73.832727 -65.658121 
L 73.832727 -58.746637 
L 87.948142 -84.456999 
L 102.063557 -107.318852 
L 116.178972 -118.32455 
L 130.294387 -125.098432 
L 144.409802 -130.101259 
L 158.525217 -132.0963 
L 172.640632 -132.610326 
L 186.756047 -137.686717 
L 200.871462 -141.246616 
L 214.986877 -140.633362 
L 229.102292 -145.991153 
L 243.217708 -146.590103 
L 257.333123 -175.174966 
L 271.448538 -221.058027 
L 285.563953 -246.098371 
L 299.679368 -263.215413 
L 313.794783 -284.292172 
L 327.910198 -286.524792 
L 342.025613 -287.855949 
L 356.141028 -288.735964 
L 370.256443 -289.438527 
L 384.371858 -290.213993 
L 398.487273 -290.298351 
L 398.487273 -291.112245 
L 398.487273 -291.112245 
L 384.371858 -291.212182 
L 370.256443 -290.749496 
L 356.141028 -290.197864 
L 342.025613 -289.524435 
L 327.910198 -288.474388 
L 313.794783 -286.633779 
L 299.679368 -271.090082 
L 285.563953 -258.158056 
L 271.448538 -245.117971 
L 257.333123 -210.220764 
L 243.217708 -173.987633 
L 229.102292 -173.522354 
L 214.986877 -162.105922 
L 200.871462 -164.5684 
L 186.756047 -157.305343 
L 172.640632 -145.776318 
L 158.525217 -139.129293 
L 144.409802 -137.026227 
L 130.294387 -133.755876 
L 116.178972 -125.350368 
L 102.063557 -120.10082 
L 87.948142 -92.240077 
L 73.832727 -65.658121 
z
" style="stroke: #c44e52; stroke-opacity: 0.2"/>
    </defs>
    <g clip-path="url(#p277f3c43ec)">
     <use xlink:href="#md6c348deee" x="0" y="345.6" style="fill: #c44e52; fill-opacity: 0.2; stroke: #c44e52; stroke-opacity: 0.2"/>
    </g>
   </g>
   <g id="PolyCollection_3">
    <defs>
     <path id="m8afffd2acb" d="M 73.832727 -159.426058 
L 73.832727 -155.175766 
L 87.948142 -185.194262 
L 102.063557 -210.210245 
L 116.178972 -225.468668 
L 130.294387 -238.295598 
L 144.409802 -241.998006 
L 158.525217 -244.0099 
L 172.640632 -246.509804 
L 186.756047 -248.949633 
L 200.871462 -250.191087 
L 214.986877 -250.825371 
L 229.102292 -252.62425 
L 243.217708 -253.577507 
L 257.333123 -258.903633 
L 271.448538 -265.652286 
L 285.563953 -272.883354 
L 299.679368 -282.413532 
L 313.794783 -290.330358 
L 327.910198 -290.473174 
L 342.025613 -290.589759 
L 356.141028 -290.677619 
L 370.256443 -290.907234 
L 384.371858 -290.966482 
L 398.487273 -290.980475 
L 398.487273 -290.983511 
L 398.487273 -290.983511 
L 384.371858 -290.97588 
L 370.256443 -290.937936 
L 356.141028 -290.718329 
L 342.025613 -290.635289 
L 327.910198 -290.522147 
L 313.794783 -290.485693 
L 299.679368 -285.892653 
L 285.563953 -277.855727 
L 271.448538 -271.648955 
L 257.333123 -265.107183 
L 243.217708 -258.230366 
L 229.102292 -256.628961 
L 214.986877 -254.863824 
L 200.871462 -252.687911 
L 186.756047 -251.332152 
L 172.640632 -249.622256 
L 158.525217 -247.531814 
L 144.409802 -244.496699 
L 130.294387 -241.892091 
L 116.178972 -232.840358 
L 102.063557 -220.584145 
L 87.948142 -194.232763 
L 73.832727 -159.426058 
z
" style="stroke: #1a1a1a; stroke-opacity: 0.2"/>
    </defs>
    <g clip-path="url(#p277f3c43ec)">
     <use xlink:href="#m8afffd2acb" x="0" y="345.6" style="fill: #1a1a1a; fill-opacity: 0.2; stroke: #1a1a1a; stroke-opacity: 0.2"/>
    </g>
   </g>
   <g id="PolyCollection_4">
    <defs>
     <path id="m87436bdf60" d="M 73.832727 -65.382799 
L 73.832727 -60.248253 
L 87.948142 -201.09741 
L 102.063557 -222.188819 
L 116.178972 -222.773448 
L 130.294387 -228.840896 
L 144.409802 -232.686882 
L 158.525217 -232.469833 
L 172.640632 -230.650845 
L 186.756047 -231.142173 
L 200.871462 -234.191442 
L 214.986877 -231.99706 
L 229.102292 -232.798238 
L 243.217708 -230.599291 
L 257.333123 -234.258447 
L 271.448538 -233.419232 
L 285.563953 -232.435049 
L 299.679368 -230.443771 
L 313.794783 -235.287507 
L 327.910198 -231.752957 
L 342.025613 -230.241552 
L 356.141028 -232.364892 
L 370.256443 -233.643066 
L 384.371858 -234.216363 
L 398.487273 -226.675641 
L 398.487273 -235.053475 
L 398.487273 -235.053475 
L 384.371858 -241.40493 
L 370.256443 -240.73496 
L 356.141028 -239.557059 
L 342.025613 -237.855732 
L 327.910198 -238.907823 
L 313.794783 -241.968146 
L 299.679368 -237.884634 
L 285.563953 -240.462543 
L 271.448538 -240.65815 
L 257.333123 -240.741096 
L 243.217708 -238.128811 
L 229.102292 -239.80708 
L 214.986877 -239.731438 
L 200.871462 -240.405847 
L 186.756047 -238.624814 
L 172.640632 -238.188865 
L 158.525217 -239.33586 
L 144.409802 -239.916809 
L 130.294387 -236.330165 
L 116.178972 -231.620229 
L 102.063557 -231.173414 
L 87.948142 -211.422328 
L 73.832727 -65.382799 
z
" style="stroke: #55a868; stroke-opacity: 0.2"/>
    </defs>
    <g clip-path="url(#p277f3c43ec)">
     <use xlink:href="#m87436bdf60" x="0" y="345.6" style="fill: #55a868; fill-opacity: 0.2; stroke: #55a868; stroke-opacity: 0.2"/>
    </g>
   </g>
   <g id="PolyCollection_5">
    <defs>
     <path id="mf8215f64f5" d="M 73.832727 -76.32764 
L 73.832727 -62.81403 
L 87.948142 -123.557644 
L 102.063557 -216.601605 
L 116.178972 -241.280484 
L 130.294387 -251.341213 
L 144.409802 -256.217549 
L 158.525217 -265.67766 
L 172.640632 -269.815953 
L 186.756047 -271.899921 
L 200.871462 -274.444704 
L 214.986877 -277.241431 
L 229.102292 -279.873319 
L 243.217708 -281.273579 
L 257.333123 -282.371572 
L 271.448538 -283.817686 
L 285.563953 -285.166659 
L 299.679368 -286.312984 
L 313.794783 -287.227526 
L 327.910198 -288.553214 
L 342.025613 -288.86889 
L 356.141028 -289.74383 
L 370.256443 -290.020146 
L 384.371858 -290.425386 
L 398.487273 -291.144096 
L 398.487273 -292.032 
L 398.487273 -292.032 
L 384.371858 -291.413507 
L 370.256443 -291.00703 
L 356.141028 -290.760881 
L 342.025613 -290.032153 
L 327.910198 -289.372189 
L 313.794783 -288.54268 
L 299.679368 -287.324345 
L 285.563953 -286.444286 
L 271.448538 -285.064908 
L 257.333123 -283.857541 
L 243.217708 -282.73128 
L 229.102292 -281.369473 
L 214.986877 -278.796241 
L 200.871462 -275.974201 
L 186.756047 -273.440121 
L 172.640632 -271.622458 
L 158.525217 -267.161817 
L 144.409802 -259.127368 
L 130.294387 -254.406809 
L 116.178972 -246.766503 
L 102.063557 -223.365803 
L 87.948142 -136.929629 
L 73.832727 -76.32764 
z
" style="stroke: #64b5cd; stroke-opacity: 0.2"/>
    </defs>
    <g clip-path="url(#p277f3c43ec)">
     <use xlink:href="#mf8215f64f5" x="0" y="345.6" style="fill: #64b5cd; fill-opacity: 0.2; stroke: #64b5cd; stroke-opacity: 0.2"/>
    </g>
   </g>
   <g id="PolyCollection_6">
    <defs>
     <path id="m72644b5dd0" d="M 73.832727 -56.057633 
L 73.832727 -50.112 
L 87.948142 -85.204527 
L 102.063557 -100.108511 
L 116.178972 -104.047598 
L 130.294387 -114.51009 
L 144.409802 -113.286027 
L 158.525217 -115.659426 
L 172.640632 -131.721114 
L 186.756047 -140.901355 
L 200.871462 -145.47363 
L 214.986877 -155.896985 
L 229.102292 -153.02103 
L 243.217708 -156.753078 
L 257.333123 -170.523714 
L 271.448538 -172.142971 
L 285.563953 -173.995564 
L 299.679368 -176.723666 
L 313.794783 -179.766411 
L 327.910198 -173.39997 
L 342.025613 -174.204534 
L 356.141028 -174.268144 
L 370.256443 -175.909962 
L 384.371858 -174.364659 
L 398.487273 -172.674669 
L 398.487273 -186.432719 
L 398.487273 -186.432719 
L 384.371858 -188.405099 
L 370.256443 -189.902975 
L 356.141028 -186.844468 
L 342.025613 -188.040434 
L 327.910198 -187.229007 
L 313.794783 -192.835318 
L 299.679368 -190.220931 
L 285.563953 -187.528602 
L 271.448538 -185.912046 
L 257.333123 -183.669665 
L 243.217708 -168.78424 
L 229.102292 -160.893009 
L 214.986877 -163.425161 
L 200.871462 -152.357458 
L 186.756047 -148.323824 
L 172.640632 -139.538659 
L 158.525217 -127.804831 
L 144.409802 -121.407234 
L 130.294387 -122.054466 
L 116.178972 -112.845809 
L 102.063557 -107.690934 
L 87.948142 -90.293227 
L 73.832727 -56.057633 
z
" style="stroke: #8172b3; stroke-opacity: 0.2"/>
    </defs>
    <g clip-path="url(#p277f3c43ec)">
     <use xlink:href="#m72644b5dd0" x="0" y="345.6" style="fill: #8172b3; fill-opacity: 0.2; stroke: #8172b3; stroke-opacity: 0.2"/>
    </g>
   </g>
   <g id="PolyCollection_7">
    <defs>
     <path id="me7a5cc8a58" d="M 73.832727 -170.06329 
L 73.832727 -170.06329 
L 87.948142 -227.396979 
L 102.063557 -243.015293 
L 116.178972 -250.83443 
L 130.294387 -261.582066 
L 144.409802 -270.149426 
L 158.525217 -272.628889 
L 172.640632 -275.510342 
L 186.756047 -277.815355 
L 200.871462 -279.123414 
L 214.986877 -280.563053 
L 229.102292 -282.056598 
L 243.217708 -283.313644 
L 257.333123 -284.081361 
L 271.448538 -285.419624 
L 285.563953 -286.743294 
L 299.679368 -287.568142 
L 313.794783 -288.273678 
L 327.910198 -288.823103 
L 342.025613 -289.341516 
L 356.141028 -289.770025 
L 370.256443 -290.448747 
L 384.371858 -290.849913 
L 398.487273 -291.051607 
L 398.487273 -291.090719 
L 398.487273 -291.090719 
L 384.371858 -290.914806 
L 370.256443 -290.573314 
L 356.141028 -289.909485 
L 342.025613 -289.442803 
L 327.910198 -288.917681 
L 313.794783 -288.37451 
L 299.679368 -287.696805 
L 285.563953 -287.112833 
L 271.448538 -285.855103 
L 257.333123 -284.452924 
L 243.217708 -283.689052 
L 229.102292 -282.576986 
L 214.986877 -281.017353 
L 200.871462 -279.542163 
L 186.756047 -278.36485 
L 172.640632 -276.050453 
L 158.525217 -273.198043 
L 144.409802 -271.081813 
L 130.294387 -263.508325 
L 116.178972 -253.103216 
L 102.063557 -245.057039 
L 87.948142 -227.633329 
L 73.832727 -170.06329 
z
" style="stroke: #ccb974; stroke-opacity: 0.2"/>
    </defs>
    <g clip-path="url(#p277f3c43ec)">
     <use xlink:href="#me7a5cc8a58" x="0" y="345.6" style="fill: #ccb974; fill-opacity: 0.2; stroke: #ccb974; stroke-opacity: 0.2"/>
    </g>
   </g>
   <g id="line2d_14">
    <path d="M 73.832727 284.187131 
L 87.948142 259.926451 
L 102.063557 243.16118 
L 116.178972 230.941961 
L 130.294387 225.935294 
L 144.409802 209.992668 
L 158.525217 206.408654 
L 172.640632 204.570842 
L 186.756047 198.901619 
L 200.871462 186.32258 
L 214.986877 185.156392 
L 229.102292 183.051651 
L 243.217708 174.820325 
L 257.333123 176.945761 
L 271.448538 171.916075 
L 285.563953 174.876711 
L 299.679368 165.896566 
L 313.794783 163.398987 
L 327.910198 160.112247 
L 342.025613 161.20554 
L 356.141028 158.914902 
L 370.256443 157.847766 
L 384.371858 147.606101 
L 398.487273 146.798803 
" clip-path="url(#p277f3c43ec)" style="fill: none; stroke: #4c72b0; stroke-width: 1.5; stroke-linecap: round"/>
   </g>
   <g id="line2d_15">
    <path d="M 73.832727 283.397621 
L 87.948142 257.251462 
L 102.063557 231.890164 
L 116.178972 223.762541 
L 130.294387 216.172846 
L 144.409802 212.036257 
L 158.525217 209.987203 
L 172.640632 206.406678 
L 186.756047 198.10397 
L 200.871462 192.692492 
L 214.986877 194.230358 
L 229.102292 185.843246 
L 243.217708 185.311132 
L 257.333123 152.902135 
L 271.448538 112.512001 
L 285.563953 93.471787 
L 299.679368 78.447252 
L 313.794783 60.137024 
L 327.910198 58.10041 
L 342.025613 56.909808 
L 356.141028 56.133086 
L 370.256443 55.505988 
L 384.371858 54.886913 
L 398.487273 54.894702 
" clip-path="url(#p277f3c43ec)" style="fill: none; stroke: #c44e52; stroke-width: 1.5; stroke-linecap: round"/>
   </g>
   <g id="line2d_16">
    <path d="M 73.832727 188.299088 
L 87.948142 155.886487 
L 102.063557 130.202805 
L 116.178972 116.445487 
L 130.294387 105.506155 
L 144.409802 102.352647 
L 158.525217 99.829143 
L 172.640632 97.53397 
L 186.756047 95.459107 
L 200.871462 94.160501 
L 214.986877 92.755403 
L 229.102292 90.973394 
L 243.217708 89.696064 
L 257.333123 83.594592 
L 271.448538 76.94938 
L 285.563953 70.23046 
L 299.679368 61.446907 
L 313.794783 55.191975 
L 327.910198 55.102339 
L 342.025613 54.987476 
L 356.141028 54.902026 
L 370.256443 54.677415 
L 384.371858 54.628819 
L 398.487273 54.618007 
" clip-path="url(#p277f3c43ec)" style="fill: none; stroke: #1a1a1a; stroke-width: 1.5; stroke-linecap: round"/>
   </g>
   <g id="line2d_17">
    <path d="M 73.832727 282.784474 
L 87.948142 139.340131 
L 102.063557 118.918884 
L 116.178972 118.403161 
L 130.294387 113.01447 
L 144.409802 109.298155 
L 158.525217 109.697153 
L 172.640632 111.180145 
L 186.756047 110.716507 
L 200.871462 108.301355 
L 214.986877 109.735751 
L 229.102292 109.297341 
L 243.217708 111.235949 
L 257.333123 108.100228 
L 271.448538 108.561309 
L 285.563953 109.151204 
L 299.679368 111.435797 
L 313.794783 106.972173 
L 327.910198 110.26961 
L 342.025613 111.551358 
L 356.141028 109.639024 
L 370.256443 108.410987 
L 384.371858 107.789354 
L 398.487273 114.735442 
" clip-path="url(#p277f3c43ec)" style="fill: none; stroke: #55a868; stroke-width: 1.5; stroke-linecap: round"/>
   </g>
   <g id="line2d_18">
    <path d="M 73.832727 276.029165 
L 87.948142 215.356364 
L 102.063557 125.616296 
L 116.178972 101.576506 
L 130.294387 92.725989 
L 144.409802 87.927541 
L 158.525217 79.180261 
L 172.640632 74.880794 
L 186.756047 72.929979 
L 200.871462 70.390547 
L 214.986877 67.581164 
L 229.102292 64.978604 
L 243.217708 63.597571 
L 257.333123 62.485443 
L 271.448538 61.158703 
L 285.563953 59.794527 
L 299.679368 58.781335 
L 313.794783 57.714897 
L 327.910198 56.637299 
L 342.025613 56.149478 
L 356.141028 55.347644 
L 370.256443 55.086412 
L 384.371858 54.680554 
L 398.487273 54.011952 
" clip-path="url(#p277f3c43ec)" style="fill: none; stroke: #64b5cd; stroke-width: 1.5; stroke-linecap: round"/>
   </g>
   <g id="line2d_19">
    <path d="M 73.832727 292.515183 
L 87.948142 257.851123 
L 102.063557 241.700278 
L 116.178972 237.153297 
L 130.294387 227.317722 
L 144.409802 228.25337 
L 158.525217 223.867871 
L 172.640632 209.970113 
L 186.756047 200.98741 
L 200.871462 196.684456 
L 214.986877 185.938927 
L 229.102292 188.642981 
L 243.217708 182.831341 
L 257.333123 168.503311 
L 271.448538 166.572492 
L 285.563953 164.837917 
L 299.679368 162.127702 
L 313.794783 159.299136 
L 327.910198 165.285512 
L 342.025613 164.477516 
L 356.141028 165.043694 
L 370.256443 162.693531 
L 384.371858 164.215121 
L 398.487273 166.046306 
" clip-path="url(#p277f3c43ec)" style="fill: none; stroke: #8172b3; stroke-width: 1.5; stroke-linecap: round"/>
   </g>
   <g id="line2d_20">
    <path d="M 73.832727 175.53671 
L 87.948142 118.084846 
L 102.063557 101.563834 
L 116.178972 93.631177 
L 130.294387 83.054804 
L 144.409802 74.984381 
L 158.525217 72.686534 
L 172.640632 69.819603 
L 186.756047 67.509898 
L 200.871462 66.267212 
L 214.986877 64.809797 
L 229.102292 63.283208 
L 243.217708 62.098652 
L 257.333123 61.332858 
L 271.448538 59.962637 
L 285.563953 58.671936 
L 299.679368 57.967527 
L 313.794783 57.275906 
L 327.910198 56.729608 
L 342.025613 56.20784 
L 356.141028 55.760245 
L 370.256443 55.08897 
L 384.371858 54.71764 
L 398.487273 54.528837 
" clip-path="url(#p277f3c43ec)" style="fill: none; stroke: #ccb974; stroke-width: 1.5; stroke-linecap: round"/>
   </g>
   <g id="patch_3">
    <path d="M 57.6 307.584 
L 57.6 41.472 
" style="fill: none; stroke: #ffffff; stroke-width: 1.25; stroke-linejoin: miter; stroke-linecap: square"/>
   </g>
   <g id="patch_4">
    <path d="M 414.72 307.584 
L 414.72 41.472 
" style="fill: none; stroke: #ffffff; stroke-width: 1.25; stroke-linejoin: miter; stroke-linecap: square"/>
   </g>
   <g id="patch_5">
    <path d="M 57.6 307.584 
L 414.72 307.584 
" style="fill: none; stroke: #ffffff; stroke-width: 1.25; stroke-linejoin: miter; stroke-linecap: square"/>
   </g>
   <g id="patch_6">
    <path d="M 57.6 41.472 
L 414.72 41.472 
" style="fill: none; stroke: #ffffff; stroke-width: 1.25; stroke-linejoin: miter; stroke-linecap: square"/>
   </g>
   <g id="legend_1">
    <g id="patch_7">
     <path d="M 188.394141 303.459 
L 408.945 303.459 
Q 410.595 303.459 410.595 301.809 
L 410.595 217.867828 
Q 410.595 216.217828 408.945 216.217828 
L 188.394141 216.217828 
Q 186.744141 216.217828 186.744141 217.867828 
L 186.744141 301.809 
Q 186.744141 303.459 188.394141 303.459 
z
" style="fill: #eaeaf2; opacity: 0.8; stroke: #cccccc; stroke-linejoin: miter"/>
    </g>
    <g id="line2d_21">
     <path d="M 190.044141 222.899039 
L 198.294141 222.899039 
L 206.544141 222.899039 
" style="fill: none; stroke: #4c72b0; stroke-width: 1.5; stroke-linecap: round"/>
    </g>
    <g id="text_14">
     <!-- NoClusteringRandomSampling -->
     <g style="fill: #262626" transform="translate(213.144141 225.786539) scale(0.0825 -0.0825)">
      <defs>
       <path id="DejaVuSans-4e" d="M 628 4666 
L 1478 4666 
L 3547 763 
L 3547 4666 
L 4159 4666 
L 4159 0 
L 3309 0 
L 1241 3903 
L 1241 0 
L 628 0 
L 628 4666 
z
" transform="scale(0.015625)"/>
       <path id="DejaVuSans-6f" d="M 1959 3097 
Q 1497 3097 1228 2736 
Q 959 2375 959 1747 
Q 959 1119 1226 758 
Q 1494 397 1959 397 
Q 2419 397 2687 759 
Q 2956 1122 2956 1747 
Q 2956 2369 2687 2733 
Q 2419 3097 1959 3097 
z
M 1959 3584 
Q 2709 3584 3137 3096 
Q 3566 2609 3566 1747 
Q 3566 888 3137 398 
Q 2709 -91 1959 -91 
Q 1206 -91 779 398 
Q 353 888 353 1747 
Q 353 2609 779 3096 
Q 1206 3584 1959 3584 
z
" transform="scale(0.015625)"/>
       <path id="DejaVuSans-43" d="M 4122 4306 
L 4122 3641 
Q 3803 3938 3442 4084 
Q 3081 4231 2675 4231 
Q 1875 4231 1450 3742 
Q 1025 3253 1025 2328 
Q 1025 1406 1450 917 
Q 1875 428 2675 428 
Q 3081 428 3442 575 
Q 3803 722 4122 1019 
L 4122 359 
Q 3791 134 3420 21 
Q 3050 -91 2638 -91 
Q 1578 -91 968 557 
Q 359 1206 359 2328 
Q 359 3453 968 4101 
Q 1578 4750 2638 4750 
Q 3056 4750 3426 4639 
Q 3797 4528 4122 4306 
z
" transform="scale(0.015625)"/>
       <path id="DejaVuSans-6c" d="M 603 4863 
L 1178 4863 
L 1178 0 
L 603 0 
L 603 4863 
z
" transform="scale(0.015625)"/>
       <path id="DejaVuSans-75" d="M 544 1381 
L 544 3500 
L 1119 3500 
L 1119 1403 
Q 1119 906 1312 657 
Q 1506 409 1894 409 
Q 2359 409 2629 706 
Q 2900 1003 2900 1516 
L 2900 3500 
L 3475 3500 
L 3475 0 
L 2900 0 
L 2900 538 
Q 2691 219 2414 64 
Q 2138 -91 1772 -91 
Q 1169 -91 856 284 
Q 544 659 544 1381 
z
M 1991 3584 
L 1991 3584 
z
" transform="scale(0.015625)"/>
       <path id="DejaVuSans-73" d="M 2834 3397 
L 2834 2853 
Q 2591 2978 2328 3040 
Q 2066 3103 1784 3103 
Q 1356 3103 1142 2972 
Q 928 2841 928 2578 
Q 928 2378 1081 2264 
Q 1234 2150 1697 2047 
L 1894 2003 
Q 2506 1872 2764 1633 
Q 3022 1394 3022 966 
Q 3022 478 2636 193 
Q 2250 -91 1575 -91 
Q 1294 -91 989 -36 
Q 684 19 347 128 
L 347 722 
Q 666 556 975 473 
Q 1284 391 1588 391 
Q 1994 391 2212 530 
Q 2431 669 2431 922 
Q 2431 1156 2273 1281 
Q 2116 1406 1581 1522 
L 1381 1569 
Q 847 1681 609 1914 
Q 372 2147 372 2553 
Q 372 3047 722 3315 
Q 1072 3584 1716 3584 
Q 2034 3584 2315 3537 
Q 2597 3491 2834 3397 
z
" transform="scale(0.015625)"/>
       <path id="DejaVuSans-74" d="M 1172 4494 
L 1172 3500 
L 2356 3500 
L 2356 3053 
L 1172 3053 
L 1172 1153 
Q 1172 725 1289 603 
Q 1406 481 1766 481 
L 2356 481 
L 2356 0 
L 1766 0 
Q 1100 0 847 248 
Q 594 497 594 1153 
L 594 3053 
L 172 3053 
L 172 3500 
L 594 3500 
L 594 4494 
L 1172 4494 
z
" transform="scale(0.015625)"/>
       <path id="DejaVuSans-65" d="M 3597 1894 
L 3597 1613 
L 953 1613 
Q 991 1019 1311 708 
Q 1631 397 2203 397 
Q 2534 397 2845 478 
Q 3156 559 3463 722 
L 3463 178 
Q 3153 47 2828 -22 
Q 2503 -91 2169 -91 
Q 1331 -91 842 396 
Q 353 884 353 1716 
Q 353 2575 817 3079 
Q 1281 3584 2069 3584 
Q 2775 3584 3186 3129 
Q 3597 2675 3597 1894 
z
M 3022 2063 
Q 3016 2534 2758 2815 
Q 2500 3097 2075 3097 
Q 1594 3097 1305 2825 
Q 1016 2553 972 2059 
L 3022 2063 
z
" transform="scale(0.015625)"/>
       <path id="DejaVuSans-72" d="M 2631 2963 
Q 2534 3019 2420 3045 
Q 2306 3072 2169 3072 
Q 1681 3072 1420 2755 
Q 1159 2438 1159 1844 
L 1159 0 
L 581 0 
L 581 3500 
L 1159 3500 
L 1159 2956 
Q 1341 3275 1631 3429 
Q 1922 3584 2338 3584 
Q 2397 3584 2469 3576 
Q 2541 3569 2628 3553 
L 2631 2963 
z
" transform="scale(0.015625)"/>
       <path id="DejaVuSans-69" d="M 603 3500 
L 1178 3500 
L 1178 0 
L 603 0 
L 603 3500 
z
M 603 4863 
L 1178 4863 
L 1178 4134 
L 603 4134 
L 603 4863 
z
" transform="scale(0.015625)"/>
       <path id="DejaVuSans-6e" d="M 3513 2113 
L 3513 0 
L 2938 0 
L 2938 2094 
Q 2938 2591 2744 2837 
Q 2550 3084 2163 3084 
Q 1697 3084 1428 2787 
Q 1159 2491 1159 1978 
L 1159 0 
L 581 0 
L 581 3500 
L 1159 3500 
L 1159 2956 
Q 1366 3272 1645 3428 
Q 1925 3584 2291 3584 
Q 2894 3584 3203 3211 
Q 3513 2838 3513 2113 
z
" transform="scale(0.015625)"/>
       <path id="DejaVuSans-67" d="M 2906 1791 
Q 2906 2416 2648 2759 
Q 2391 3103 1925 3103 
Q 1463 3103 1205 2759 
Q 947 2416 947 1791 
Q 947 1169 1205 825 
Q 1463 481 1925 481 
Q 2391 481 2648 825 
Q 2906 1169 2906 1791 
z
M 3481 434 
Q 3481 -459 3084 -895 
Q 2688 -1331 1869 -1331 
Q 1566 -1331 1297 -1286 
Q 1028 -1241 775 -1147 
L 775 -588 
Q 1028 -725 1275 -790 
Q 1522 -856 1778 -856 
Q 2344 -856 2625 -561 
Q 2906 -266 2906 331 
L 2906 616 
Q 2728 306 2450 153 
Q 2172 0 1784 0 
Q 1141 0 747 490 
Q 353 981 353 1791 
Q 353 2603 747 3093 
Q 1141 3584 1784 3584 
Q 2172 3584 2450 3431 
Q 2728 3278 2906 2969 
L 2906 3500 
L 3481 3500 
L 3481 434 
z
" transform="scale(0.015625)"/>
       <path id="DejaVuSans-52" d="M 2841 2188 
Q 3044 2119 3236 1894 
Q 3428 1669 3622 1275 
L 4263 0 
L 3584 0 
L 2988 1197 
Q 2756 1666 2539 1819 
Q 2322 1972 1947 1972 
L 1259 1972 
L 1259 0 
L 628 0 
L 628 4666 
L 2053 4666 
Q 2853 4666 3247 4331 
Q 3641 3997 3641 3322 
Q 3641 2881 3436 2590 
Q 3231 2300 2841 2188 
z
M 1259 4147 
L 1259 2491 
L 2053 2491 
Q 2509 2491 2742 2702 
Q 2975 2913 2975 3322 
Q 2975 3731 2742 3939 
Q 2509 4147 2053 4147 
L 1259 4147 
z
" transform="scale(0.015625)"/>
       <path id="DejaVuSans-61" d="M 2194 1759 
Q 1497 1759 1228 1600 
Q 959 1441 959 1056 
Q 959 750 1161 570 
Q 1363 391 1709 391 
Q 2188 391 2477 730 
Q 2766 1069 2766 1631 
L 2766 1759 
L 2194 1759 
z
M 3341 1997 
L 3341 0 
L 2766 0 
L 2766 531 
Q 2569 213 2275 61 
Q 1981 -91 1556 -91 
Q 1019 -91 701 211 
Q 384 513 384 1019 
Q 384 1609 779 1909 
Q 1175 2209 1959 2209 
L 2766 2209 
L 2766 2266 
Q 2766 2663 2505 2880 
Q 2244 3097 1772 3097 
Q 1472 3097 1187 3025 
Q 903 2953 641 2809 
L 641 3341 
Q 956 3463 1253 3523 
Q 1550 3584 1831 3584 
Q 2591 3584 2966 3190 
Q 3341 2797 3341 1997 
z
" transform="scale(0.015625)"/>
       <path id="DejaVuSans-64" d="M 2906 2969 
L 2906 4863 
L 3481 4863 
L 3481 0 
L 2906 0 
L 2906 525 
Q 2725 213 2448 61 
Q 2172 -91 1784 -91 
Q 1150 -91 751 415 
Q 353 922 353 1747 
Q 353 2572 751 3078 
Q 1150 3584 1784 3584 
Q 2172 3584 2448 3432 
Q 2725 3281 2906 2969 
z
M 947 1747 
Q 947 1113 1208 752 
Q 1469 391 1925 391 
Q 2381 391 2643 752 
Q 2906 1113 2906 1747 
Q 2906 2381 2643 2742 
Q 2381 3103 1925 3103 
Q 1469 3103 1208 2742 
Q 947 2381 947 1747 
z
" transform="scale(0.015625)"/>
       <path id="DejaVuSans-6d" d="M 3328 2828 
Q 3544 3216 3844 3400 
Q 4144 3584 4550 3584 
Q 5097 3584 5394 3201 
Q 5691 2819 5691 2113 
L 5691 0 
L 5113 0 
L 5113 2094 
Q 5113 2597 4934 2840 
Q 4756 3084 4391 3084 
Q 3944 3084 3684 2787 
Q 3425 2491 3425 1978 
L 3425 0 
L 2847 0 
L 2847 2094 
Q 2847 2600 2669 2842 
Q 2491 3084 2119 3084 
Q 1678 3084 1418 2786 
Q 1159 2488 1159 1978 
L 1159 0 
L 581 0 
L 581 3500 
L 1159 3500 
L 1159 2956 
Q 1356 3278 1631 3431 
Q 1906 3584 2284 3584 
Q 2666 3584 2933 3390 
Q 3200 3197 3328 2828 
z
" transform="scale(0.015625)"/>
       <path id="DejaVuSans-53" d="M 3425 4513 
L 3425 3897 
Q 3066 4069 2747 4153 
Q 2428 4238 2131 4238 
Q 1616 4238 1336 4038 
Q 1056 3838 1056 3469 
Q 1056 3159 1242 3001 
Q 1428 2844 1947 2747 
L 2328 2669 
Q 3034 2534 3370 2195 
Q 3706 1856 3706 1288 
Q 3706 609 3251 259 
Q 2797 -91 1919 -91 
Q 1588 -91 1214 -16 
Q 841 59 441 206 
L 441 856 
Q 825 641 1194 531 
Q 1563 422 1919 422 
Q 2459 422 2753 634 
Q 3047 847 3047 1241 
Q 3047 1584 2836 1778 
Q 2625 1972 2144 2069 
L 1759 2144 
Q 1053 2284 737 2584 
Q 422 2884 422 3419 
Q 422 4038 858 4394 
Q 1294 4750 2059 4750 
Q 2388 4750 2728 4690 
Q 3069 4631 3425 4513 
z
" transform="scale(0.015625)"/>
       <path id="DejaVuSans-70" d="M 1159 525 
L 1159 -1331 
L 581 -1331 
L 581 3500 
L 1159 3500 
L 1159 2969 
Q 1341 3281 1617 3432 
Q 1894 3584 2278 3584 
Q 2916 3584 3314 3078 
Q 3713 2572 3713 1747 
Q 3713 922 3314 415 
Q 2916 -91 2278 -91 
Q 1894 -91 1617 61 
Q 1341 213 1159 525 
z
M 3116 1747 
Q 3116 2381 2855 2742 
Q 2594 3103 2138 3103 
Q 1681 3103 1420 2742 
Q 1159 2381 1159 1747 
Q 1159 1113 1420 752 
Q 1681 391 2138 391 
Q 2594 391 2855 752 
Q 3116 1113 3116 1747 
z
" transform="scale(0.015625)"/>
      </defs>
      <use xlink:href="#DejaVuSans-4e"/>
      <use xlink:href="#DejaVuSans-6f" x="74.804688"/>
      <use xlink:href="#DejaVuSans-43" x="135.986328"/>
      <use xlink:href="#DejaVuSans-6c" x="205.810547"/>
      <use xlink:href="#DejaVuSans-75" x="233.59375"/>
      <use xlink:href="#DejaVuSans-73" x="296.972656"/>
      <use xlink:href="#DejaVuSans-74" x="349.072266"/>
      <use xlink:href="#DejaVuSans-65" x="388.28125"/>
      <use xlink:href="#DejaVuSans-72" x="449.804688"/>
      <use xlink:href="#DejaVuSans-69" x="490.917969"/>
      <use xlink:href="#DejaVuSans-6e" x="518.701172"/>
      <use xlink:href="#DejaVuSans-67" x="582.080078"/>
      <use xlink:href="#DejaVuSans-52" x="645.556641"/>
      <use xlink:href="#DejaVuSans-61" x="712.789062"/>
      <use xlink:href="#DejaVuSans-6e" x="774.068359"/>
      <use xlink:href="#DejaVuSans-64" x="837.447266"/>
      <use xlink:href="#DejaVuSans-6f" x="900.923828"/>
      <use xlink:href="#DejaVuSans-6d" x="962.105469"/>
      <use xlink:href="#DejaVuSans-53" x="1059.517578"/>
      <use xlink:href="#DejaVuSans-61" x="1122.994141"/>
      <use xlink:href="#DejaVuSans-6d" x="1184.273438"/>
      <use xlink:href="#DejaVuSans-70" x="1281.685547"/>
      <use xlink:href="#DejaVuSans-6c" x="1345.162109"/>
      <use xlink:href="#DejaVuSans-69" x="1372.945312"/>
      <use xlink:href="#DejaVuSans-6e" x="1400.728516"/>
      <use xlink:href="#DejaVuSans-67" x="1464.107422"/>
     </g>
    </g>
    <g id="line2d_22">
     <path d="M 190.044141 235.008492 
L 198.294141 235.008492 
L 206.544141 235.008492 
" style="fill: none; stroke: #c44e52; stroke-width: 1.5; stroke-linecap: round"/>
    </g>
    <g id="text_15">
     <!-- BoWKmeansRandomSampling -->
     <g style="fill: #262626" transform="translate(213.144141 237.895992) scale(0.0825 -0.0825)">
      <defs>
       <path id="DejaVuSans-42" d="M 1259 2228 
L 1259 519 
L 2272 519 
Q 2781 519 3026 730 
Q 3272 941 3272 1375 
Q 3272 1813 3026 2020 
Q 2781 2228 2272 2228 
L 1259 2228 
z
M 1259 4147 
L 1259 2741 
L 2194 2741 
Q 2656 2741 2882 2914 
Q 3109 3088 3109 3444 
Q 3109 3797 2882 3972 
Q 2656 4147 2194 4147 
L 1259 4147 
z
M 628 4666 
L 2241 4666 
Q 2963 4666 3353 4366 
Q 3744 4066 3744 3513 
Q 3744 3084 3544 2831 
Q 3344 2578 2956 2516 
Q 3422 2416 3680 2098 
Q 3938 1781 3938 1306 
Q 3938 681 3513 340 
Q 3088 0 2303 0 
L 628 0 
L 628 4666 
z
" transform="scale(0.015625)"/>
       <path id="DejaVuSans-57" d="M 213 4666 
L 850 4666 
L 1831 722 
L 2809 4666 
L 3519 4666 
L 4500 722 
L 5478 4666 
L 6119 4666 
L 4947 0 
L 4153 0 
L 3169 4050 
L 2175 0 
L 1381 0 
L 213 4666 
z
" transform="scale(0.015625)"/>
       <path id="DejaVuSans-4b" d="M 628 4666 
L 1259 4666 
L 1259 2694 
L 3353 4666 
L 4166 4666 
L 1850 2491 
L 4331 0 
L 3500 0 
L 1259 2247 
L 1259 0 
L 628 0 
L 628 4666 
z
" transform="scale(0.015625)"/>
      </defs>
      <use xlink:href="#DejaVuSans-42"/>
      <use xlink:href="#DejaVuSans-6f" x="68.603516"/>
      <use xlink:href="#DejaVuSans-57" x="129.785156"/>
      <use xlink:href="#DejaVuSans-4b" x="228.662109"/>
      <use xlink:href="#DejaVuSans-6d" x="294.238281"/>
      <use xlink:href="#DejaVuSans-65" x="391.650391"/>
      <use xlink:href="#DejaVuSans-61" x="453.173828"/>
      <use xlink:href="#DejaVuSans-6e" x="514.453125"/>
      <use xlink:href="#DejaVuSans-73" x="577.832031"/>
      <use xlink:href="#DejaVuSans-52" x="629.931641"/>
      <use xlink:href="#DejaVuSans-61" x="697.164062"/>
      <use xlink:href="#DejaVuSans-6e" x="758.443359"/>
      <use xlink:href="#DejaVuSans-64" x="821.822266"/>
      <use xlink:href="#DejaVuSans-6f" x="885.298828"/>
      <use xlink:href="#DejaVuSans-6d" x="946.480469"/>
      <use xlink:href="#DejaVuSans-53" x="1043.892578"/>
      <use xlink:href="#DejaVuSans-61" x="1107.369141"/>
      <use xlink:href="#DejaVuSans-6d" x="1168.648438"/>
      <use xlink:href="#DejaVuSans-70" x="1266.060547"/>
      <use xlink:href="#DejaVuSans-6c" x="1329.537109"/>
      <use xlink:href="#DejaVuSans-69" x="1357.320312"/>
      <use xlink:href="#DejaVuSans-6e" x="1385.103516"/>
      <use xlink:href="#DejaVuSans-67" x="1448.482422"/>
     </g>
    </g>
    <g id="line2d_23">
     <path d="M 190.044141 247.117945 
L 198.294141 247.117945 
L 206.544141 247.117945 
" style="fill: none; stroke: #1a1a1a; stroke-width: 1.5; stroke-linecap: round"/>
    </g>
    <g id="text_16">
     <!-- BoWKmeansBestUsageChoice -->
     <g style="fill: #262626" transform="translate(213.144141 250.005445) scale(0.0825 -0.0825)">
      <defs>
       <path id="DejaVuSans-55" d="M 556 4666 
L 1191 4666 
L 1191 1831 
Q 1191 1081 1462 751 
Q 1734 422 2344 422 
Q 2950 422 3222 751 
Q 3494 1081 3494 1831 
L 3494 4666 
L 4128 4666 
L 4128 1753 
Q 4128 841 3676 375 
Q 3225 -91 2344 -91 
Q 1459 -91 1007 375 
Q 556 841 556 1753 
L 556 4666 
z
" transform="scale(0.015625)"/>
       <path id="DejaVuSans-68" d="M 3513 2113 
L 3513 0 
L 2938 0 
L 2938 2094 
Q 2938 2591 2744 2837 
Q 2550 3084 2163 3084 
Q 1697 3084 1428 2787 
Q 1159 2491 1159 1978 
L 1159 0 
L 581 0 
L 581 4863 
L 1159 4863 
L 1159 2956 
Q 1366 3272 1645 3428 
Q 1925 3584 2291 3584 
Q 2894 3584 3203 3211 
Q 3513 2838 3513 2113 
z
" transform="scale(0.015625)"/>
       <path id="DejaVuSans-63" d="M 3122 3366 
L 3122 2828 
Q 2878 2963 2633 3030 
Q 2388 3097 2138 3097 
Q 1578 3097 1268 2742 
Q 959 2388 959 1747 
Q 959 1106 1268 751 
Q 1578 397 2138 397 
Q 2388 397 2633 464 
Q 2878 531 3122 666 
L 3122 134 
Q 2881 22 2623 -34 
Q 2366 -91 2075 -91 
Q 1284 -91 818 406 
Q 353 903 353 1747 
Q 353 2603 823 3093 
Q 1294 3584 2113 3584 
Q 2378 3584 2631 3529 
Q 2884 3475 3122 3366 
z
" transform="scale(0.015625)"/>
      </defs>
      <use xlink:href="#DejaVuSans-42"/>
      <use xlink:href="#DejaVuSans-6f" x="68.603516"/>
      <use xlink:href="#DejaVuSans-57" x="129.785156"/>
      <use xlink:href="#DejaVuSans-4b" x="228.662109"/>
      <use xlink:href="#DejaVuSans-6d" x="294.238281"/>
      <use xlink:href="#DejaVuSans-65" x="391.650391"/>
      <use xlink:href="#DejaVuSans-61" x="453.173828"/>
      <use xlink:href="#DejaVuSans-6e" x="514.453125"/>
      <use xlink:href="#DejaVuSans-73" x="577.832031"/>
      <use xlink:href="#DejaVuSans-42" x="629.931641"/>
      <use xlink:href="#DejaVuSans-65" x="698.535156"/>
      <use xlink:href="#DejaVuSans-73" x="760.058594"/>
      <use xlink:href="#DejaVuSans-74" x="812.158203"/>
      <use xlink:href="#DejaVuSans-55" x="851.367188"/>
      <use xlink:href="#DejaVuSans-73" x="924.560547"/>
      <use xlink:href="#DejaVuSans-61" x="976.660156"/>
      <use xlink:href="#DejaVuSans-67" x="1037.939453"/>
      <use xlink:href="#DejaVuSans-65" x="1101.416016"/>
      <use xlink:href="#DejaVuSans-43" x="1162.939453"/>
      <use xlink:href="#DejaVuSans-68" x="1232.763672"/>
      <use xlink:href="#DejaVuSans-6f" x="1296.142578"/>
      <use xlink:href="#DejaVuSans-69" x="1357.324219"/>
      <use xlink:href="#DejaVuSans-63" x="1385.107422"/>
      <use xlink:href="#DejaVuSans-65" x="1440.087891"/>
     </g>
    </g>
    <g id="line2d_24">
     <path d="M 190.044141 259.227398 
L 198.294141 259.227398 
L 206.544141 259.227398 
" style="fill: none; stroke: #55a868; stroke-width: 1.5; stroke-linecap: round"/>
    </g>
    <g id="text_17">
     <!-- KmedoidsRandomSampling -->
     <g style="fill: #262626" transform="translate(213.144141 262.114898) scale(0.0825 -0.0825)">
      <use xlink:href="#DejaVuSans-4b"/>
      <use xlink:href="#DejaVuSans-6d" x="65.576172"/>
      <use xlink:href="#DejaVuSans-65" x="162.988281"/>
      <use xlink:href="#DejaVuSans-64" x="224.511719"/>
      <use xlink:href="#DejaVuSans-6f" x="287.988281"/>
      <use xlink:href="#DejaVuSans-69" x="349.169922"/>
      <use xlink:href="#DejaVuSans-64" x="376.953125"/>
      <use xlink:href="#DejaVuSans-73" x="440.429688"/>
      <use xlink:href="#DejaVuSans-52" x="492.529297"/>
      <use xlink:href="#DejaVuSans-61" x="559.761719"/>
      <use xlink:href="#DejaVuSans-6e" x="621.041016"/>
      <use xlink:href="#DejaVuSans-64" x="684.419922"/>
      <use xlink:href="#DejaVuSans-6f" x="747.896484"/>
      <use xlink:href="#DejaVuSans-6d" x="809.078125"/>
      <use xlink:href="#DejaVuSans-53" x="906.490234"/>
      <use xlink:href="#DejaVuSans-61" x="969.966797"/>
      <use xlink:href="#DejaVuSans-6d" x="1031.246094"/>
      <use xlink:href="#DejaVuSans-70" x="1128.658203"/>
      <use xlink:href="#DejaVuSans-6c" x="1192.134766"/>
      <use xlink:href="#DejaVuSans-69" x="1219.917969"/>
      <use xlink:href="#DejaVuSans-6e" x="1247.701172"/>
      <use xlink:href="#DejaVuSans-67" x="1311.080078"/>
     </g>
    </g>
    <g id="line2d_25">
     <path d="M 190.044141 271.336852 
L 198.294141 271.336852 
L 206.544141 271.336852 
" style="fill: none; stroke: #64b5cd; stroke-width: 1.5; stroke-linecap: round"/>
    </g>
    <g id="text_18">
     <!-- W2VKmeansRandomSampling -->
     <g style="fill: #262626" transform="translate(213.144141 274.224352) scale(0.0825 -0.0825)">
      <defs>
       <path id="DejaVuSans-56" d="M 1831 0 
L 50 4666 
L 709 4666 
L 2188 738 
L 3669 4666 
L 4325 4666 
L 2547 0 
L 1831 0 
z
" transform="scale(0.015625)"/>
      </defs>
      <use xlink:href="#DejaVuSans-57"/>
      <use xlink:href="#DejaVuSans-32" x="98.876953"/>
      <use xlink:href="#DejaVuSans-56" x="162.5"/>
      <use xlink:href="#DejaVuSans-4b" x="230.908203"/>
      <use xlink:href="#DejaVuSans-6d" x="296.484375"/>
      <use xlink:href="#DejaVuSans-65" x="393.896484"/>
      <use xlink:href="#DejaVuSans-61" x="455.419922"/>
      <use xlink:href="#DejaVuSans-6e" x="516.699219"/>
      <use xlink:href="#DejaVuSans-73" x="580.078125"/>
      <use xlink:href="#DejaVuSans-52" x="632.177734"/>
      <use xlink:href="#DejaVuSans-61" x="699.410156"/>
      <use xlink:href="#DejaVuSans-6e" x="760.689453"/>
      <use xlink:href="#DejaVuSans-64" x="824.068359"/>
      <use xlink:href="#DejaVuSans-6f" x="887.544922"/>
      <use xlink:href="#DejaVuSans-6d" x="948.726562"/>
      <use xlink:href="#DejaVuSans-53" x="1046.138672"/>
      <use xlink:href="#DejaVuSans-61" x="1109.615234"/>
      <use xlink:href="#DejaVuSans-6d" x="1170.894531"/>
      <use xlink:href="#DejaVuSans-70" x="1268.306641"/>
      <use xlink:href="#DejaVuSans-6c" x="1331.783203"/>
      <use xlink:href="#DejaVuSans-69" x="1359.566406"/>
      <use xlink:href="#DejaVuSans-6e" x="1387.349609"/>
      <use xlink:href="#DejaVuSans-67" x="1450.728516"/>
     </g>
    </g>
    <g id="line2d_26">
     <path d="M 190.044141 283.446305 
L 198.294141 283.446305 
L 206.544141 283.446305 
" style="fill: none; stroke: #8172b3; stroke-width: 1.5; stroke-linecap: round"/>
    </g>
    <g id="text_19">
     <!-- AgglutineHierarchyClusteringRandomSampling -->
     <g style="fill: #262626" transform="translate(213.144141 286.333805) scale(0.0825 -0.0825)">
      <defs>
       <path id="DejaVuSans-41" d="M 2188 4044 
L 1331 1722 
L 3047 1722 
L 2188 4044 
z
M 1831 4666 
L 2547 4666 
L 4325 0 
L 3669 0 
L 3244 1197 
L 1141 1197 
L 716 0 
L 50 0 
L 1831 4666 
z
" transform="scale(0.015625)"/>
       <path id="DejaVuSans-48" d="M 628 4666 
L 1259 4666 
L 1259 2753 
L 3553 2753 
L 3553 4666 
L 4184 4666 
L 4184 0 
L 3553 0 
L 3553 2222 
L 1259 2222 
L 1259 0 
L 628 0 
L 628 4666 
z
" transform="scale(0.015625)"/>
       <path id="DejaVuSans-79" d="M 2059 -325 
Q 1816 -950 1584 -1140 
Q 1353 -1331 966 -1331 
L 506 -1331 
L 506 -850 
L 844 -850 
Q 1081 -850 1212 -737 
Q 1344 -625 1503 -206 
L 1606 56 
L 191 3500 
L 800 3500 
L 1894 763 
L 2988 3500 
L 3597 3500 
L 2059 -325 
z
" transform="scale(0.015625)"/>
      </defs>
      <use xlink:href="#DejaVuSans-41"/>
      <use xlink:href="#DejaVuSans-67" x="68.408203"/>
      <use xlink:href="#DejaVuSans-67" x="131.884766"/>
      <use xlink:href="#DejaVuSans-6c" x="195.361328"/>
      <use xlink:href="#DejaVuSans-75" x="223.144531"/>
      <use xlink:href="#DejaVuSans-74" x="286.523438"/>
      <use xlink:href="#DejaVuSans-69" x="325.732422"/>
      <use xlink:href="#DejaVuSans-6e" x="353.515625"/>
      <use xlink:href="#DejaVuSans-65" x="416.894531"/>
      <use xlink:href="#DejaVuSans-48" x="478.417969"/>
      <use xlink:href="#DejaVuSans-69" x="553.613281"/>
      <use xlink:href="#DejaVuSans-65" x="581.396484"/>
      <use xlink:href="#DejaVuSans-72" x="642.919922"/>
      <use xlink:href="#DejaVuSans-61" x="684.033203"/>
      <use xlink:href="#DejaVuSans-72" x="745.3125"/>
      <use xlink:href="#DejaVuSans-63" x="784.175781"/>
      <use xlink:href="#DejaVuSans-68" x="839.15625"/>
      <use xlink:href="#DejaVuSans-79" x="902.535156"/>
      <use xlink:href="#DejaVuSans-43" x="961.714844"/>
      <use xlink:href="#DejaVuSans-6c" x="1031.539062"/>
      <use xlink:href="#DejaVuSans-75" x="1059.322266"/>
      <use xlink:href="#DejaVuSans-73" x="1122.701172"/>
      <use xlink:href="#DejaVuSans-74" x="1174.800781"/>
      <use xlink:href="#DejaVuSans-65" x="1214.009766"/>
      <use xlink:href="#DejaVuSans-72" x="1275.533203"/>
      <use xlink:href="#DejaVuSans-69" x="1316.646484"/>
      <use xlink:href="#DejaVuSans-6e" x="1344.429688"/>
      <use xlink:href="#DejaVuSans-67" x="1407.808594"/>
      <use xlink:href="#DejaVuSans-52" x="1471.285156"/>
      <use xlink:href="#DejaVuSans-61" x="1538.517578"/>
      <use xlink:href="#DejaVuSans-6e" x="1599.796875"/>
      <use xlink:href="#DejaVuSans-64" x="1663.175781"/>
      <use xlink:href="#DejaVuSans-6f" x="1726.652344"/>
      <use xlink:href="#DejaVuSans-6d" x="1787.833984"/>
      <use xlink:href="#DejaVuSans-53" x="1885.246094"/>
      <use xlink:href="#DejaVuSans-61" x="1948.722656"/>
      <use xlink:href="#DejaVuSans-6d" x="2010.001953"/>
      <use xlink:href="#DejaVuSans-70" x="2107.414062"/>
      <use xlink:href="#DejaVuSans-6c" x="2170.890625"/>
      <use xlink:href="#DejaVuSans-69" x="2198.673828"/>
      <use xlink:href="#DejaVuSans-6e" x="2226.457031"/>
      <use xlink:href="#DejaVuSans-67" x="2289.835938"/>
     </g>
    </g>
    <g id="line2d_27">
     <path d="M 190.044141 295.555758 
L 198.294141 295.555758 
L 206.544141 295.555758 
" style="fill: none; stroke: #ccb974; stroke-width: 1.5; stroke-linecap: round"/>
    </g>
    <g id="text_20">
     <!-- W2VKmeansBestUsageChoice -->
     <g style="fill: #262626" transform="translate(213.144141 298.443258) scale(0.0825 -0.0825)">
      <use xlink:href="#DejaVuSans-57"/>
      <use xlink:href="#DejaVuSans-32" x="98.876953"/>
      <use xlink:href="#DejaVuSans-56" x="162.5"/>
      <use xlink:href="#DejaVuSans-4b" x="230.908203"/>
      <use xlink:href="#DejaVuSans-6d" x="296.484375"/>
      <use xlink:href="#DejaVuSans-65" x="393.896484"/>
      <use xlink:href="#DejaVuSans-61" x="455.419922"/>
      <use xlink:href="#DejaVuSans-6e" x="516.699219"/>
      <use xlink:href="#DejaVuSans-73" x="580.078125"/>
      <use xlink:href="#DejaVuSans-42" x="632.177734"/>
      <use xlink:href="#DejaVuSans-65" x="700.78125"/>
      <use xlink:href="#DejaVuSans-73" x="762.304688"/>
      <use xlink:href="#DejaVuSans-74" x="814.404297"/>
      <use xlink:href="#DejaVuSans-55" x="853.613281"/>
      <use xlink:href="#DejaVuSans-73" x="926.806641"/>
      <use xlink:href="#DejaVuSans-61" x="978.90625"/>
      <use xlink:href="#DejaVuSans-67" x="1040.185547"/>
      <use xlink:href="#DejaVuSans-65" x="1103.662109"/>
      <use xlink:href="#DejaVuSans-43" x="1165.185547"/>
      <use xlink:href="#DejaVuSans-68" x="1235.009766"/>
      <use xlink:href="#DejaVuSans-6f" x="1298.388672"/>
      <use xlink:href="#DejaVuSans-69" x="1359.570312"/>
      <use xlink:href="#DejaVuSans-63" x="1387.353516"/>
      <use xlink:href="#DejaVuSans-65" x="1442.333984"/>
     </g>
    </g>
   </g>
  </g>
 </g>
 <defs>
  <clipPath id="p277f3c43ec">
   <rect x="57.6" y="41.472" width="357.12" height="266.112"/>
  </clipPath>
 </defs>
</svg>
